<svg width="19" height="24" viewBox="0 0 19 24" fill="none" xmlns="http://www.w3.org/2000/svg">
<path d="M17.537 9.40193C17.537 14.0419 9.26852 22.0048 9.26852 22.0048C9.26852 22.0048 1 14.0419 1 9.40193C1 7.1736 1.87115 5.03654 3.42179 3.46087C4.97244 1.8852 7.07558 1 9.26852 1C11.4615 1 13.5646 1.8852 15.1153 3.46087C16.6659 5.03654 17.537 7.1736 17.537 9.40193V9.40193Z" stroke="#0F1010" stroke-width="1.5"/>
<path d="M9.2691 11.8263C9.85951 11.8263 10.4257 11.588 10.8432 11.1638C11.2607 10.7395 11.4952 10.1642 11.4952 9.56424C11.4952 8.96431 11.2607 8.38895 10.8432 7.96473C10.4257 7.54051 9.85951 7.30219 9.2691 7.30219C8.6787 7.30219 8.11247 7.54051 7.69499 7.96473C7.27751 8.38895 7.04297 8.96431 7.04297 9.56424C7.04297 10.1642 7.27751 10.7395 7.69499 11.1638C8.11247 11.588 8.6787 11.8263 9.2691 11.8263V11.8263Z" stroke="#0F1010" stroke-width="1.5" stroke-linecap="round" stroke-linejoin="round"/>
</svg>
