<svg width="24" height="8" viewBox="0 0 24 8" fill="none" xmlns="http://www.w3.org/2000/svg">
<circle cx="22.2072" cy="4.15017" r="1.15" transform="rotate(-180 22.2072 4.15017)" fill="#0F1010"/>
<path d="M17.3572 4.5C17.6333 4.5 17.8572 4.27614 17.8572 4C17.8572 3.72386 17.6333 3.5 17.3572 3.5L17.3572 4.5ZM0.646065 3.64645C0.450804 3.84171 0.450804 4.15829 0.646065 4.35355L3.82805 7.53553C4.02331 7.73079 4.33989 7.73079 4.53515 7.53553C4.73041 7.34027 4.73041 7.02369 4.53515 6.82843L1.70673 4L4.53515 1.17157C4.73041 0.97631 4.73041 0.659727 4.53515 0.464465C4.33989 0.269203 4.02331 0.269203 3.82805 0.464465L0.646065 3.64645ZM17.3572 3.5L0.999619 3.5L0.999618 4.5L17.3572 4.5L17.3572 3.5Z" fill="#0F1010"/>
</svg>
