<svg width="23" height="8" viewBox="0 0 23 8" fill="none" xmlns="http://www.w3.org/2000/svg">
<circle cx="1.15" cy="4.15" r="1.15" fill="#0F1010"/>
<path d="M6 3.5C5.72386 3.5 5.5 3.72386 5.5 4C5.5 4.27614 5.72386 4.5 6 4.5V3.5ZM22.7111 4.35355C22.9064 4.15829 22.9064 3.84171 22.7111 3.64645L19.5291 0.464466C19.3339 0.269204 19.0173 0.269204 18.822 0.464466C18.6268 0.659728 18.6268 0.976311 18.822 1.17157L21.6505 4L18.822 6.82843C18.6268 7.02369 18.6268 7.34027 18.822 7.53553C19.0173 7.7308 19.3339 7.7308 19.5291 7.53553L22.7111 4.35355ZM6 4.5L22.3576 4.5V3.5L6 3.5V4.5Z" fill="#0F1010"/>
</svg>
