<svg width="26" height="16" viewBox="0 0 26 16" fill="none" xmlns="http://www.w3.org/2000/svg">
<circle cx="1.15" cy="8.15" r="1.15" fill="white"/>
<path d="M8 7C7.44772 7 7 7.44772 7 8C7 8.55228 7.44772 9 8 9V7ZM25.0647 8.70711C25.4552 8.31658 25.4552 7.68342 25.0647 7.29289L18.7007 0.928932C18.3102 0.538408 17.677 0.538408 17.2865 0.928932C16.896 1.31946 16.896 1.95262 17.2865 2.34315L22.9433 8L17.2865 13.6569C16.896 14.0474 16.896 14.6805 17.2865 15.0711C17.677 15.4616 18.3102 15.4616 18.7007 15.0711L25.0647 8.70711ZM8 9H24.3576V7L8 7V9Z" fill="white"/>
</svg>
