<svg width="8" height="23" viewBox="0 0 8 23" fill="none" xmlns="http://www.w3.org/2000/svg">
<ellipse cx="3.85168" cy="1.19435" rx="1.1382" ry="1.14832" transform="rotate(90 3.85168 1.19435)" fill="#0F1010"/>
<path d="M4.50098 5.99463C4.50098 5.71849 4.27712 5.49463 4.00098 5.49463C3.72483 5.49463 3.50098 5.71849 3.50098 5.99463H4.50098ZM3.64742 22.5379C3.84269 22.7332 4.15927 22.7332 4.35453 22.5379L7.53651 19.3559C7.73177 19.1607 7.73177 18.8441 7.53651 18.6488C7.34125 18.4536 7.02467 18.4536 6.8294 18.6488L4.00098 21.4772L1.17255 18.6488C0.977287 18.4536 0.660705 18.4536 0.465443 18.6488C0.27018 18.8441 0.27018 19.1607 0.465443 19.3559L3.64742 22.5379ZM3.50098 5.99463L3.50098 22.1844H4.50098L4.50098 5.99463H3.50098Z" fill="#0F1010"/>
</svg>
