<svg width="334" height="398" viewBox="0 0 334 398" fill="none" xmlns="http://www.w3.org/2000/svg">
<g filter="url(#filter0_b)">
<path d="M299 396.85L35 396.85C16.3037 396.85 1.15001 381.727 1.15001 363.034L1.15001 362.789L1.15001 362.543L1.15001 362.297L1.15001 362.05L1.15001 361.802L1.15001 361.553L1.15001 361.304L1.15001 361.055L1.15001 360.804L1.15001 360.553L1.15001 360.302L1.15001 360.049L1.15001 359.796L1.15001 359.543L1.15001 359.289L1.15001 359.034L1.15001 358.778L1.15001 358.522L1.15001 358.266L1.15001 358.008L1.15001 357.751L1.15001 357.492L1.15001 357.233L1.15001 356.973L1.15001 356.713L1.15001 356.452L1.15001 356.19L1.15001 355.928L1.15001 355.665L1.15001 355.402L1.15001 355.138L1.15001 354.873L1.15001 354.608L1.15001 354.342L1.15001 354.076L1.15001 353.809L1.15001 353.541L1.15001 353.273L1.15001 353.005L1.15001 352.735L1.15001 352.465L1.15001 352.195L1.15001 351.924L1.15001 351.652L1.15001 351.38L1.15001 351.108L1.15001 350.834L1.15001 350.56L1.15001 350.286L1.15001 350.011L1.15001 349.736L1.15001 349.46L1.15001 349.183L1.15001 348.906L1.15001 348.628L1.15001 348.35L1.15001 348.071L1.15001 347.792L1.15001 347.512L1.15001 347.232L1.15001 346.951L1.15001 346.669L1.15001 346.387L1.15001 346.105L1.15001 345.822L1.15001 345.538L1.15001 345.254L1.15001 344.969L1.15001 344.684L1.15001 344.399L1.15001 344.113L1.15001 343.826L1.15001 343.539L1.15001 343.251L1.15001 342.963L1.15001 342.674L1.15001 342.385L1.15001 342.095L1.15001 341.805L1.15001 341.515L1.15001 341.223L1.15001 340.932L1.15001 340.64L1.15001 340.347L1.15001 340.054L1.15001 339.76L1.15001 339.466L1.15001 339.172L1.15001 338.877L1.15001 338.581L1.15001 338.286L1.15001 337.989L1.15001 337.692L1.15001 337.395L1.15001 337.097L1.15001 336.799L1.15001 336.5L1.15001 336.201L1.15001 335.902L1.15001 335.602L1.15001 335.301L1.15001 335L1.15001 334.699L1.15001 334.397L1.15001 334.095L1.15001 333.792L1.15001 333.489L1.15001 333.185L1.15001 332.881L1.15001 332.577L1.15001 332.272L1.15001 331.967L1.15001 331.661L1.15001 331.355L1.15001 331.048L1.15001 330.741L1.15001 330.434L1.15001 330.126L1.15001 329.818L1.15001 329.51L1.15001 329.201L1.15001 328.891L1.15001 328.581L1.15001 328.271L1.15001 327.961L1.15001 327.65L1.15001 327.338L1.15001 327.027L1.15001 326.714L1.15001 326.402L1.15001 326.089L1.15001 325.776L1.15001 325.462L1.15001 325.148L1.15001 324.834L1.15001 324.519L1.15001 324.204L1.15001 323.888L1.15001 323.572L1.15001 323.256L1.15001 322.939L1.15001 322.622L1.15001 322.305L1.15001 321.987L1.15001 321.669L1.15001 321.351L1.15001 321.032L1.15001 320.713L1.15001 320.394L1.15001 320.074L1.15001 319.754L1.15001 319.433L1.15001 319.113L1.15001 318.792L1.15001 318.47L1.15001 318.148L1.15001 317.826L1.15001 317.504L1.15001 317.181L1.15001 316.858L1.15001 316.535L1.15001 316.211L1.15001 315.887L1.15001 315.563L1.15001 315.238L1.15001 314.913L1.15001 314.588L1.15001 314.262L1.15001 313.936L1.15001 313.61L1.15001 313.284L1.15001 312.957L1.15001 312.63L1.15001 312.303L1.15001 311.975L1.15001 311.647L1.15001 311.319L1.15001 310.99L1.15001 310.662L1.15001 310.333L1.15001 310.003L1.15001 309.674L1.15001 309.344L1.15001 309.014L1.15001 308.683L1.15001 308.353L1.15001 308.022L1.15001 307.691L1.15001 307.359L1.15001 307.028L1.15001 306.696L1.15001 306.363L1.15001 306.031L1.15001 305.698L1.15001 305.365L1.15001 305.032L1.15001 304.699L1.15001 304.365L1.15001 304.031L1.15001 303.697L1.15001 303.363L1.15001 303.028L1.15001 302.693L1.15001 302.358L1.15001 302.023L1.15001 301.688L1.15001 301.352L1.15001 301.016L1.15001 300.68L1.15001 300.344L1.15001 300.007L1.15001 299.67L1.15001 299.333L1.15001 298.996L1.15001 298.659L1.15001 298.321L1.15001 297.983L1.15001 297.645L1.15001 297.307L1.15001 296.969L1.15001 296.63L1.15001 296.292L1.15001 295.953L1.15001 295.614L1.15001 295.274L1.15001 294.935L1.15001 294.595L1.15001 294.256L1.15001 293.916L1.15001 293.575L1.15001 293.235L1.15001 292.895L1.15001 292.554L1.15001 292.213L1.15001 291.872L1.15001 291.531L1.15001 291.19L1.15001 290.848L1.15001 290.507L1.15001 290.165L1.15001 289.823L1.15001 289.481L1.15001 289.139L1.15001 288.797L1.15001 288.454L1.15001 288.112L1.15001 287.769L1.15001 287.426L1.15001 287.083L1.15001 286.74L1.15001 286.397L1.15001 286.054L1.15001 285.71L1.15001 285.366L1.15001 285.023L1.15001 284.679L1.15001 284.335L1.15001 283.991L1.15001 283.647L1.15001 283.303L1.15001 282.958L1.15001 282.614L1.15001 282.269L1.15001 281.925L1.15001 281.58L1.15001 281.235L1.15001 280.89L1.15001 280.545L1.15001 280.2L1.15001 279.855L1.15001 279.51L1.15001 279.164L1.15001 278.819L1.15001 278.473L1.15001 278.128L1.15001 277.782L1.15001 277.436L1.15001 277.091L1.15001 276.745L1.15001 276.399L1.15001 276.053L1.15001 275.707L1.15001 275.361L1.15001 275.015L1.15001 274.669L1.15001 274.322L1.15001 273.976L1.15001 273.63L1.15001 273.283L1.15001 272.937L1.15001 272.591L1.15001 272.244L1.15001 271.898L1.15001 271.551L1.15001 271.204L1.15001 270.858L1.15001 270.511L1.15001 270.165L1.15001 269.818L1.15001 269.471L1.15001 269.125L1.15001 268.778L1.15001 268.431L1.15001 268.084L1.15001 267.738L1.15001 267.391L1.15001 267.044L1.15001 266.697L1.15001 266.351L1.15001 266.004L1.15001 265.657L1.15001 265.31L1.15001 264.963L1.15001 264.617L1.15001 264.27L1.15001 263.923L1.15001 263.577L1.15001 263.23L1.15001 262.883L1.15001 262.537L1.15001 262.19L1.15001 261.843L1.15001 261.497L1.15001 261.15L1.15001 260.804L1.15001 260.458L1.15001 260.111L1.15001 259.765L1.15001 259.418L1.15001 259.072L1.15001 258.726L1.15001 258.38L1.15001 258.034L1.15001 257.688L1.15001 257.342L1.15001 256.996L1.15001 256.65L1.15001 256.304L1.15001 255.958L1.15001 255.612L1.15001 255.267L1.15001 254.921L1.15001 254.576L1.15001 254.23L1.15001 253.885L1.15001 253.54L1.15001 253.195L1.15001 252.849L1.15001 252.504L1.15001 252.16L1.15001 251.815L1.15001 251.47L1.15001 251.125L1.15001 250.781L1.15001 250.436L1.15001 250.092L1.15001 249.748L1.15001 249.404L1.15001 249.06L1.15001 248.716L1.15001 248.372L1.15001 248.028L1.15001 247.685L1.15001 247.341L1.15001 246.998L1.15001 246.655L1.15001 246.312L1.15001 245.969L1.15001 245.626L1.15001 245.283L1.15001 244.941L1.15001 244.598L1.15001 244.256L1.15001 243.914L1.15001 243.572L1.15001 243.23L1.15001 242.888L1.15001 242.546L1.15001 242.205L1.15001 241.864L1.15001 241.523L1.15001 241.182L1.15001 240.841L1.15001 240.5L1.15001 240.16L1.15001 239.82L1.15001 239.479L1.15001 239.139L1.15001 238.8L1.15001 238.46L1.15001 238.121L1.15001 237.781L1.15001 237.442L1.15001 237.103L1.15001 236.765L1.15001 236.426L1.15001 236.088L1.15001 235.75L1.15001 235.412L1.15001 235.074L1.15001 234.736L1.15001 234.399L1.15001 234.062L1.15001 233.725L1.15001 233.388L1.15001 233.051L1.15001 232.715L1.15001 232.379L1.15001 232.043L1.15001 231.707L1.15001 231.372L1.15001 231.037L1.15001 230.702L1.15001 230.367L1.15001 230.032L1.15001 229.698L1.15001 229.364L1.15001 229.03L1.15001 228.696L1.15001 228.363L1.15001 228.03L1.15001 227.697L1.15001 227.364L1.15001 227.032L1.15001 226.7L1.15001 226.368L1.15001 226.036L1.15001 225.705L1.15001 225.374L1.15001 225.043L1.15001 224.712L1.15001 224.382L1.15001 224.052L1.15001 223.722L1.15001 223.392L1.15001 223.063L1.15001 222.734L1.15001 222.405L1.15001 222.077L1.15001 221.748L1.15001 221.421L1.15001 221.093L1.15001 220.766L1.15001 220.439L1.15001 220.112L1.15001 219.785L1.15001 219.459L1.15001 219.134L1.15001 218.808L1.15001 218.483L1.15001 218.158L1.15001 217.833L1.15001 217.509L1.15001 217.185L1.15001 216.861L1.15001 216.538L1.15001 216.215L1.15001 215.892L1.15001 215.57L1.15002 215.248L1.15002 214.926L1.15002 214.604L1.15002 214.283L1.15002 213.963L1.15002 213.642L1.15002 213.322L1.15002 213.002L1.15002 212.683L1.15002 212.364L1.15002 212.045L1.15002 211.727L1.15002 211.409L1.15002 211.091L1.15002 210.774L1.15002 210.457L1.15002 210.14L1.15002 209.824L1.15002 209.508L1.15002 209.193L1.15002 208.877L1.15002 208.563L1.15002 208.248L1.15002 207.934L1.15002 207.621L1.15002 207.307L1.15002 206.994L1.15002 206.682L1.15002 206.37L1.15002 206.058L1.15002 205.747L1.15002 205.436L1.15002 205.125L1.15002 204.815L1.15002 204.505L1.15002 204.196L1.15002 203.887L1.15002 203.578L1.15002 203.27L1.15002 202.962L1.15002 202.655L1.15002 202.348L1.15002 202.042L1.15002 201.736L1.15002 201.43L1.15002 201.125L1.15002 200.82L1.15002 200.516L1.15002 200.212L1.15002 199.908L1.15002 199.605L1.15002 199.302L1.15002 199L1.15002 198.698L1.15002 198.395L1.15002 198.092L1.15002 197.788L1.15002 197.484L1.15002 197.18L1.15002 196.875L1.15002 196.57L1.15002 196.264L1.15002 195.958L1.15002 195.652L1.15002 195.345L1.15002 195.037L1.15002 194.73L1.15002 194.422L1.15002 194.113L1.15002 193.804L1.15002 193.495L1.15002 193.185L1.15002 192.875L1.15002 192.564L1.15002 192.253L1.15002 191.942L1.15002 191.63L1.15002 191.318L1.15002 191.006L1.15002 190.693L1.15002 190.379L1.15002 190.066L1.15002 189.752L1.15002 189.437L1.15002 189.123L1.15002 188.807L1.15002 188.492L1.15002 188.176L1.15002 187.86L1.15002 187.543L1.15002 187.226L1.15002 186.909L1.15002 186.591L1.15002 186.273L1.15002 185.955L1.15002 185.636L1.15002 185.317L1.15002 184.998L1.15002 184.678L1.15002 184.358L1.15002 184.037L1.15002 183.717L1.15002 183.396L1.15002 183.074L1.15002 182.752L1.15002 182.43L1.15002 182.108L1.15002 181.785L1.15002 181.462L1.15002 181.139L1.15002 180.815L1.15002 180.491L1.15002 180.167L1.15002 179.842L1.15002 179.517L1.15002 179.192L1.15002 178.866L1.15002 178.541L1.15002 178.214L1.15002 177.888L1.15002 177.561L1.15002 177.234L1.15002 176.907L1.15002 176.579L1.15002 176.251L1.15002 175.923L1.15002 175.595L1.15002 175.266L1.15002 174.937L1.15002 174.608L1.15002 174.278L1.15002 173.948L1.15002 173.618L1.15002 173.288L1.15002 172.957L1.15002 172.626L1.15002 172.295L1.15002 171.964L1.15002 171.632L1.15002 171.3L1.15002 170.968L1.15002 170.636L1.15002 170.303L1.15002 169.97L1.15002 169.637L1.15002 169.304L1.15002 168.97L1.15002 168.636L1.15002 168.302L1.15002 167.968L1.15002 167.633L1.15002 167.298L1.15002 166.963L1.15002 166.628L1.15002 166.293L1.15002 165.957L1.15002 165.621L1.15002 165.285L1.15002 164.949L1.15002 164.612L1.15002 164.275L1.15002 163.938L1.15002 163.601L1.15002 163.264L1.15002 162.926L1.15002 162.588L1.15002 162.25L1.15002 161.912L1.15002 161.574L1.15002 161.235L1.15002 160.897L1.15002 160.558L1.15002 160.219L1.15002 159.879L1.15002 159.54L1.15002 159.2L1.15002 158.861L1.15002 158.521L1.15002 158.18L1.15002 157.84L1.15002 157.5L1.15002 157.159L1.15002 156.818L1.15002 156.477L1.15002 156.136L1.15002 155.795L1.15002 155.453L1.15002 155.112L1.15002 154.77L1.15002 154.428L1.15002 154.086L1.15002 153.744L1.15002 153.402L1.15002 153.059L1.15002 152.717L1.15002 152.374L1.15002 152.031L1.15002 151.688L1.15002 151.345L1.15002 151.002L1.15002 150.659L1.15002 150.315L1.15002 149.972L1.15002 149.628L1.15002 149.284L1.15002 148.94L1.15002 148.596L1.15002 148.252L1.15002 147.908L1.15002 147.564L1.15002 147.219L1.15002 146.875L1.15002 146.53L1.15002 146.185L1.15002 145.84L1.15002 145.495L1.15002 145.15L1.15002 144.805L1.15002 144.46L1.15002 144.115L1.15002 143.77L1.15002 143.424L1.15002 143.079L1.15002 142.733L1.15002 142.388L1.15002 142.042L1.15002 141.696L1.15002 141.35L1.15002 141.004L1.15002 140.658L1.15002 140.312L1.15002 139.966L1.15002 139.62L1.15002 139.274L1.15002 138.928L1.15002 138.582L1.15002 138.235L1.15002 137.889L1.15002 137.542L1.15002 137.196L1.15002 136.85L1.15002 136.503L1.15002 136.156L1.15002 135.81L1.15002 135.463L1.15002 135.117L1.15002 134.77L1.15002 134.423L1.15002 134.077L1.15002 133.73L1.15002 133.383L1.15002 133.036L1.15002 132.69L1.15002 132.343L1.15002 131.996L1.15002 131.649L1.15002 131.303L1.15002 130.956L1.15002 130.609L1.15002 130.262L1.15002 129.916L1.15002 129.569L1.15002 129.222L1.15002 128.875L1.15002 128.529L1.15002 128.182L1.15002 127.835L1.15002 127.489L1.15002 127.142L1.15002 126.795L1.15002 126.449L1.15002 126.102L1.15002 125.756L1.15002 125.409L1.15002 125.063L1.15002 124.717L1.15002 124.37L1.15002 124.024L1.15002 123.678L1.15002 123.331L1.15002 122.985L1.15002 122.639L1.15002 122.293L1.15002 121.947L1.15002 121.601L1.15002 121.255L1.15002 120.909L1.15002 120.564L1.15002 120.218L1.15002 119.872L1.15002 119.527L1.15002 119.181L1.15002 118.836L1.15002 118.49L1.15002 118.145L1.15002 117.8L1.15002 117.455L1.15002 117.11L1.15002 116.765L1.15002 116.42L1.15002 116.075L1.15002 115.731L1.15002 115.386L1.15002 115.042L1.15002 114.697L1.15002 114.353L1.15002 114.009L1.15002 113.665L1.15002 113.321L1.15002 112.977L1.15002 112.634L1.15002 112.29L1.15002 111.946L1.15002 111.603L1.15002 111.26L1.15002 110.917L1.15002 110.574L1.15002 110.231L1.15002 109.888L1.15002 109.546L1.15002 109.203L1.15002 108.861L1.15002 108.519L1.15002 108.177L1.15002 107.835L1.15002 107.493L1.15002 107.152L1.15002 106.81L1.15002 106.469L1.15002 106.128L1.15002 105.787L1.15002 105.446L1.15002 105.105L1.15002 104.765L1.15002 104.425L1.15002 104.084L1.15002 103.744L1.15002 103.405L1.15002 103.065L1.15002 102.726L1.15002 102.386L1.15002 102.047L1.15002 101.708L1.15002 101.37L1.15002 101.031L1.15002 100.693L1.15002 100.355L1.15002 100.017L1.15002 99.6788L1.15002 99.3412L1.15002 99.0038L1.15002 98.6666L1.15002 98.3297L1.15002 97.9929L1.15002 97.6563L1.15002 97.32L1.15002 96.9839L1.15002 96.648L1.15002 96.3123L1.15002 95.9768L1.15002 95.6415L1.15002 95.3065L1.15002 94.9717L1.15002 94.6371L1.15002 94.3028L1.15002 93.9686L1.15002 93.6348L1.15002 93.3011L1.15002 92.9677L1.15002 92.6345L1.15002 92.3016L1.15002 91.9689L1.15002 91.6365L1.15002 91.3043L1.15002 90.9724L1.15002 90.6407L1.15002 90.3093L1.15002 89.9781L1.15002 89.6472L1.15002 89.3166L1.15002 88.9862L1.15002 88.6561L1.15002 88.3262L1.15002 87.9967L1.15002 87.6674L1.15002 87.3383L1.15002 87.0096L1.15002 86.6811L1.15002 86.3529L1.15002 86.025L1.15002 85.6974L1.15002 85.3701L1.15002 85.043L1.15002 84.7163L1.15002 84.3898L1.15002 84.0637L1.15002 83.7378L1.15002 83.4123L1.15002 83.087L1.15002 82.7621L1.15002 82.4375L1.15002 82.1131L1.15002 81.7891L1.15002 81.4654L1.15002 81.142L1.15002 80.8189L1.15002 80.4962L1.15002 80.1738L1.15002 79.8517L1.15002 79.5299L1.15002 79.2085L1.15002 78.8873L1.15002 78.5666L1.15002 78.2461L1.15002 77.926L1.15002 77.6062L1.15002 77.2868L1.15002 76.9677L1.15002 76.649L1.15002 76.3306L1.15002 76.0126L1.15002 75.6949L1.15002 75.3775L1.15002 75.0606L1.15002 74.744L1.15002 74.4277L1.15002 74.1118L1.15002 73.7963L1.15002 73.4811L1.15002 73.1663L1.15002 72.8519L1.15002 72.5379L1.15002 72.2242L1.15002 71.9109L1.15002 71.598L1.15002 71.2855L1.15002 70.9734L1.15002 70.6616L1.15002 70.3502L1.15002 70.0393L1.15002 69.7287L1.15002 69.4185L1.15002 69.1087L1.15002 68.7993L1.15002 68.4904L1.15002 68.1818L1.15002 67.8736L1.15002 67.5659L1.15002 67.2585L1.15002 66.9516L1.15002 66.645L1.15002 66.3389L1.15002 66.0332L1.15002 65.728L1.15002 65.4231L1.15002 65.1187L1.15002 64.8147L1.15002 64.5111L1.15002 64.208L1.15002 63.9053L1.15002 63.6031L1.15002 63.3012L1.15002 62.9999L1.15002 62.6989L1.15002 62.3984L1.15002 62.0984L1.15002 61.7988L1.15002 61.4997L1.15002 61.201L1.15002 60.9027L1.15002 60.605L1.15002 60.3076L1.15002 60.0108L1.15002 59.7144L1.15002 59.4185L1.15002 59.123L1.15002 58.828L1.15002 58.5335L1.15002 58.2395L1.15002 57.946L1.15002 57.6529L1.15002 57.3603L1.15002 57.0682L1.15002 56.7765L1.15002 56.4854L1.15002 56.1948L1.15002 55.9046L1.15002 55.6149L1.15002 55.3258L1.15002 55.0371L1.15002 54.7489L1.15002 54.4613L1.15002 54.1741L1.15002 53.8875L1.15002 53.6013L1.15002 53.3157L1.15002 53.0306L1.15002 52.746L1.15002 52.4619L1.15002 52.1784L1.15002 51.8953L1.15002 51.6128L1.15002 51.3308L1.15002 51.0494L1.15002 50.7684L1.15002 50.488L1.15002 50.2082L1.15002 49.9289L1.15002 49.6501L1.15002 49.3718L1.15002 49.0942L1.15002 48.817L1.15002 48.5404L1.15002 48.2644L1.15002 47.9889L1.15002 47.7139L1.15002 47.4395L1.15002 47.1657L1.15002 46.8924L1.15002 46.6197L1.15002 46.3476L1.15002 46.076L1.15002 45.805L1.15002 45.5346L1.15002 45.2647L1.15002 44.9955L1.15002 44.7268L1.15002 44.4586L1.15002 44.1911L1.15002 43.9242L1.15002 43.6578L1.15002 43.392L1.15002 43.1268L1.15002 42.8623L1.15002 42.5983L1.15002 42.3349L1.15002 42.0721L1.15002 41.8099L1.15002 41.5483L1.15002 41.2873L1.15002 41.0269L1.15002 40.7671L1.15002 40.508L1.15002 40.2495L1.15002 39.9915L1.15002 39.7342L1.15002 39.4776L1.15002 39.2215L1.15002 38.9661L1.15002 38.7113L1.15002 38.4571L1.15002 38.2035L1.15002 37.9506L1.15002 37.6984L1.15002 37.4467L1.15002 37.1957L1.15002 36.9454L1.15002 36.6957L1.15002 36.4466L1.15002 36.1982L1.15002 35.9505L1.15002 35.7034L1.15002 35.4569L1.15002 35.2111L1.15002 34.966C1.15002 16.2726 16.3037 1.14999 35 1.14999L299 1.15C317.696 1.15 332.85 16.2728 332.85 34.9662L332.85 199L332.85 363.034C332.85 381.727 317.696 396.85 299 396.85Z" stroke="url(#paint0_linear)" stroke-opacity="0.5" stroke-width="2.3"/>
</g>
<defs>
<filter id="filter0_b" x="-70" y="-70" width="474" height="538" filterUnits="userSpaceOnUse" color-interpolation-filters="sRGB">
<feFlood flood-opacity="0" result="BackgroundImageFix"/>
<feGaussianBlur in="BackgroundImage" stdDeviation="35"/>
<feComposite in2="SourceAlpha" operator="in" result="effect1_backgroundBlur"/>
<feBlend mode="normal" in="SourceGraphic" in2="effect1_backgroundBlur" result="shape"/>
</filter>
<linearGradient id="paint0_linear" x1="167" y1="-43.5" x2="167" y2="383.5" gradientUnits="userSpaceOnUse">
<stop stop-color="#EEF2F6" stop-opacity="0.58"/>
<stop offset="1" stop-color="#ACB0B5"/>
</linearGradient>
</defs>
</svg>
