<svg width="91" height="63" viewBox="0 0 91 63" fill="none" xmlns="http://www.w3.org/2000/svg">
<path d="M0.85 31.5C0.85 14.5725 14.5725 0.85 31.5 0.85L90.15 0.85V62.15H31.5C14.5725 62.15 0.85 48.4275 0.85 31.5Z" fill="#EF2020" stroke="url(#paint0_linear)" stroke-width="1.7"/>
<path d="M44.0001 29.75C43.3098 29.75 42.7501 30.3096 42.7501 31C42.7501 31.6904 43.3098 32.25 44.0001 32.25V29.75ZM68.884 31.8839C69.3722 31.3957 69.3722 30.6043 68.884 30.1161L60.9291 22.1612C60.4409 21.673 59.6494 21.673 59.1613 22.1612C58.6731 22.6493 58.6731 23.4408 59.1613 23.9289L66.2324 31L59.1613 38.0711C58.6731 38.5592 58.6731 39.3507 59.1613 39.8388C59.6494 40.327 60.4409 40.327 60.9291 39.8388L68.884 31.8839ZM44.0001 32.25H68.0001V29.75H44.0001V32.25Z" fill="white"/>
<ellipse cx="34.0001" cy="31" rx="2" ry="2" fill="white"/>
<defs>
<linearGradient id="paint0_linear" x1="45.5" y1="0" x2="45.5" y2="63" gradientUnits="userSpaceOnUse">
<stop stop-color="#945C5C"/>
<stop offset="1" stop-color="#553333"/>
</linearGradient>
</defs>
</svg>
