<svg width="91" height="63" viewBox="0 0 91 63" fill="none" xmlns="http://www.w3.org/2000/svg">
<path d="M0.85 31.5C0.85 14.5725 14.5725 0.85 31.5 0.85H90.15V62.15H31.5C14.5725 62.15 0.85 48.4275 0.85 31.5Z" fill="#0F1010" stroke="url(#paint0_linear)" stroke-width="1.7"/>
<path d="M44 29.75C43.3096 29.75 42.75 30.3096 42.75 31C42.75 31.6904 43.3096 32.25 44 32.25V29.75ZM68.8839 31.8839C69.372 31.3957 69.372 30.6043 68.8839 30.1161L60.9289 22.1612C60.4408 21.673 59.6493 21.673 59.1612 22.1612C58.673 22.6493 58.673 23.4408 59.1612 23.9289L66.2322 31L59.1612 38.0711C58.673 38.5592 58.673 39.3507 59.1612 39.8388C59.6493 40.327 60.4408 40.327 60.9289 39.8388L68.8839 31.8839ZM44 32.25H68V29.75H44V32.25Z" fill="white"/>
<circle cx="34" cy="31" r="2" fill="white"/>
<defs>
<linearGradient id="paint0_linear" x1="45.5" y1="0" x2="45.5" y2="63" gradientUnits="userSpaceOnUse">
<stop stop-color="#6B7373"/>
<stop offset="1"/>
</linearGradient>
</defs>
</svg>
