<svg width="60" height="50" viewBox="0 0 60 50" fill="none" xmlns="http://www.w3.org/2000/svg">
<path d="M0.85 25C0.85 11.6623 11.6623 0.85 25 0.85H59.15V49.15H25C11.6623 49.15 0.85 38.3377 0.85 25Z" fill="#0F1010" stroke="url(#paint0_linear_112:1421)" stroke-width="1.7"/>
<path d="M21 24C20.4477 24 20 24.4477 20 25C20 25.5523 20.4477 26 21 26V24ZM45.7071 25.7071C46.0976 25.3166 46.0976 24.6834 45.7071 24.2929L39.3431 17.9289C38.9526 17.5384 38.3195 17.5384 37.9289 17.9289C37.5384 18.3195 37.5384 18.9526 37.9289 19.3431L43.5858 25L37.9289 30.6569C37.5384 31.0474 37.5384 31.6805 37.9289 32.0711C38.3195 32.4616 38.9526 32.4616 39.3431 32.0711L45.7071 25.7071ZM21 26H45V24H21V26Z" fill="white"/>
<circle cx="16" cy="25" r="1" fill="white"/>
<defs>
<linearGradient id="paint0_linear_112:1421" x1="30" y1="0" x2="30" y2="50" gradientUnits="userSpaceOnUse">
<stop stop-color="#6B7373"/>
<stop offset="1"/>
</linearGradient>
</defs>
</svg>
