<svg width="98" height="98" viewBox="0 0 98 98" fill="none" xmlns="http://www.w3.org/2000/svg">
<rect x="0.8" y="0.8" width="96.4" height="96.4" rx="29.2" fill="#EF2020" stroke="url(#paint0_linear_256:2731)" stroke-width="1.6"/>
<path d="M62.0599 30.2086C63.4312 31.4063 64.3762 33.3408 64.7626 35.3666C64.8094 35.3831 64.855 35.4035 64.8991 35.4275L69.1936 37.6404C69.4336 37.7632 69.6371 37.9599 69.78 38.2074C69.9229 38.4549 69.9992 38.7427 70 39.037V67.9667C69.9985 68.207 69.947 68.4436 69.8495 68.6581C69.7521 68.8725 69.6114 69.0589 69.4385 69.2025C69.2655 69.3462 69.0651 69.4433 68.8528 69.4862C68.6405 69.5291 68.4222 69.5166 68.215 69.4498L56.3101 65.707L42.1561 70.0533C41.9007 70.1314 41.6308 70.1282 41.377 70.044L28.9954 65.9385C28.7092 65.8449 28.4578 65.6509 28.2785 65.3854C28.0991 65.1199 28.0015 64.7971 28 64.4648V35.0158C28 33.9865 28.8988 33.2473 29.7955 33.5373L41.7697 37.4229L47.8555 35.3479C47.9395 35.3199 48.0256 35.3011 48.1117 35.2894C48.3469 33.7549 49.0042 32.2811 50.1067 30.8448C51.415 29.1372 53.7103 28.136 55.9468 28.0167C58.2673 27.8927 60.0397 28.4447 62.0578 30.2062L62.0599 30.2086ZM30.7993 37.0813V63.3162L41.0263 66.7058V40.3961L30.7993 37.0813ZM48.0382 38.5176L43.8256 39.9516V66.3362L54.4621 63.0753V55.3674C54.4621 54.5159 55.09 53.8258 55.8628 53.8258C56.6356 53.8258 57.2614 54.5159 57.2614 55.3697V62.8016L67.2007 65.9245V40.0171L64.8487 38.8007C64.8088 39.058 64.7584 39.3106 64.6954 39.5563C64.2387 41.3499 63.4727 43.0273 62.44 44.4945L57.2383 51.7298C57.1013 51.9201 56.9264 52.0721 56.7275 52.1738C56.5285 52.2755 56.311 52.3241 56.0922 52.3157C55.8734 52.3073 55.6594 52.2421 55.4672 52.1254C55.275 52.0086 55.1099 51.8436 54.985 51.6433L50.1235 43.7997C49.3213 42.5505 48.7585 41.437 48.4414 40.4405C48.2424 39.8185 48.1071 39.1735 48.0382 38.5176ZM56.0812 31.0998C54.5566 31.1817 52.99 31.8648 52.2445 32.8356C51.3478 34.0052 50.9068 35.1 50.8186 36.2088C50.7136 37.5445 50.785 38.4872 51.0832 39.4206C51.3037 40.1107 51.7426 40.9856 52.4209 42.0406L56.224 48.1741L60.235 42.595C61.0442 41.443 61.6441 40.1264 62.0011 38.7188C62.5051 36.7538 61.7449 33.8672 60.3211 32.6274C58.8616 31.3525 57.7591 31.0086 56.0833 31.0998H56.0812ZM56.371 32.7303C58.6894 32.7303 60.571 34.8005 60.571 37.355C60.568 37.9659 60.4569 38.5702 60.2442 39.1333C60.0315 39.6964 59.7212 40.2072 59.3312 40.6367C58.9411 41.0662 58.479 41.4059 57.971 41.6363C57.4631 41.8667 56.9194 41.9835 56.371 41.9798C54.0526 41.9798 52.171 39.9095 52.171 37.355C52.171 34.8005 54.0526 32.7303 56.371 32.7303ZM56.371 35.8134C56.1882 35.8122 56.0069 35.8511 55.8375 35.9279C55.6682 36.0047 55.5141 36.1179 55.384 36.2611C55.254 36.4042 55.1505 36.5745 55.0795 36.7622C55.0085 36.9499 54.9714 37.1513 54.9703 37.355C54.9703 38.2065 55.5982 38.8966 56.371 38.8966C56.5538 38.8975 56.7351 38.8583 56.9043 38.7812C57.0735 38.7041 57.2275 38.5907 57.3574 38.4473C57.4872 38.3039 57.5905 38.1335 57.6612 37.9457C57.7319 37.7579 57.7688 37.5564 57.7696 37.3527C57.7668 36.9422 57.618 36.5496 57.3559 36.2611C57.0937 35.9725 56.7395 35.8116 56.371 35.8134Z" fill="white"/>
<defs>
<linearGradient id="paint0_linear_256:2731" x1="49" y1="0" x2="38.8933" y2="165.584" gradientUnits="userSpaceOnUse">
<stop stop-color="#FF7979"/>
<stop offset="1" stop-color="#B40A0A"/>
</linearGradient>
</defs>
</svg>
