<svg width="19" height="16" viewBox="0 0 19 16" fill="none" xmlns="http://www.w3.org/2000/svg">
<path d="M17.3253 9C17.8776 9 18.3253 8.55228 18.3253 8C18.3253 7.44772 17.8776 7 17.3253 7L17.3253 9ZM0.292851 7.29289C-0.0976734 7.68342 -0.0976734 8.31658 0.29285 8.70711L6.65681 15.0711C7.04734 15.4616 7.6805 15.4616 8.07103 15.0711C8.46155 14.6805 8.46155 14.0474 8.07103 13.6569L2.41417 8L8.07103 2.34315C8.46155 1.95262 8.46155 1.31946 8.07103 0.928931C7.6805 0.538407 7.04734 0.538407 6.65681 0.928931L0.292851 7.29289ZM17.3253 7L0.999958 7L0.999958 9L17.3253 9L17.3253 7Z" fill="#949494"/>
</svg>
