<svg width="21" height="18" viewBox="0 0 21 18" fill="none" xmlns="http://www.w3.org/2000/svg">
<path d="M19.7075 5.20782L10.3537 8.77208L0.999878 5.20782" stroke="#0F1010" stroke-width="1.5" stroke-linecap="round" stroke-linejoin="round"/>
<path d="M1.00049 14.5634V2.97948C1.00049 2.46744 1.20067 1.97637 1.55699 1.6143C1.9133 1.25224 2.39658 1.04883 2.90049 1.04883H18.1005C18.6044 1.04883 19.0877 1.25224 19.444 1.6143C19.8003 1.97637 20.0005 2.46744 20.0005 2.97948V14.5634C20.0005 15.0754 19.8003 15.5665 19.444 15.9286C19.0877 16.2906 18.6044 16.494 18.1005 16.494H2.90049C2.39658 16.494 1.9133 16.2906 1.55699 15.9286C1.20067 15.5665 1.00049 15.0754 1.00049 14.5634Z" stroke="#0F1010" stroke-width="1.5" stroke-linecap="round" stroke-linejoin="round"/>
</svg>
