<svg width="21" height="24" viewBox="0 0 21 24" fill="none" xmlns="http://www.w3.org/2000/svg">
<path d="M20.9698 20.0181C20.9263 20.4057 20.7956 20.7944 20.5691 21.1615C20.3426 21.5285 20.0647 21.868 19.7139 22.1775C19.1212 22.6997 18.4928 23.0544 17.8059 23.25C17.1298 23.4467 16.4143 23.5082 15.6607 23.4237C14.5626 23.3006 13.418 22.9107 12.2391 22.2444C11.0602 21.5781 9.90173 20.7288 8.77458 19.6976C7.63788 18.6545 6.57663 17.5217 5.58128 16.2873C4.59791 15.0433 3.72822 13.7576 2.97223 12.4301C2.22701 11.1039 1.65404 9.79691 1.27365 8.52244C0.894462 7.2372 0.767625 6.03475 0.893136 4.91509C0.975201 4.18301 1.18284 3.49771 1.51363 2.88072C1.84563 2.25297 2.32231 1.69593 2.95325 1.2216C3.7183 0.620587 4.50932 0.371323 5.306 0.460628C5.60744 0.49442 5.90165 0.592807 6.15631 0.752168C6.42175 0.912737 6.64764 1.13428 6.81005 1.43592L8.9131 5.23635C9.07672 5.52722 9.18891 5.79053 9.25926 6.03824C9.33081 6.27519 9.35929 6.5073 9.33636 6.71186C9.3074 6.97024 9.20307 7.22017 9.02459 7.45089C8.85688 7.68282 8.62336 7.91827 8.33602 8.14769L7.42247 8.90647C7.29077 9.01162 7.22125 9.14555 7.20194 9.3178C7.19229 9.40393 7.19461 9.4805 7.20648 9.56904C7.22913 9.65879 7.25418 9.727 7.26847 9.79401C7.42243 10.171 7.70428 10.6714 8.11523 11.2843C8.53694 11.8984 8.98974 12.5269 9.4856 13.1603C10.003 13.796 10.5037 14.3863 11.02 14.9348C11.5267 15.4712 11.9534 15.8461 12.2977 16.0809C12.3492 16.1085 12.4101 16.148 12.4819 16.1888C12.5644 16.2307 12.6493 16.2511 12.7462 16.262C12.9292 16.2825 13.0764 16.2336 13.2081 16.1284L14.1168 15.4127C14.4162 15.1737 14.6975 14.9982 14.9596 14.8967C15.2241 14.7738 15.4801 14.7262 15.7493 14.7563C15.9538 14.7793 16.1643 14.8465 16.3903 14.9699C16.6163 15.0933 16.8482 15.2611 17.0969 15.4743L20.3768 18.4037C20.635 18.6289 20.8034 18.8767 20.8917 19.1591C20.9691 19.4403 21.0036 19.7167 20.9698 20.0181Z" fill="#E1C15F"/>
</svg>
