<svg width="24" height="16" viewBox="0 0 24 16" fill="none" xmlns="http://www.w3.org/2000/svg">
<ellipse cx="1.14774" cy="8.15" rx="1.14774" ry="1.15" fill="#0F1010"/>
<path d="M6.29553 7C5.74325 7 5.29553 7.44772 5.29553 8C5.29553 8.55228 5.74325 9 6.29553 9L6.29553 7ZM23.328 8.70711C23.7185 8.31659 23.7185 7.68342 23.328 7.2929L16.964 0.928934C16.5735 0.53841 15.9403 0.538409 15.5498 0.928934C15.1593 1.31946 15.1593 1.95262 15.5498 2.34315L21.2067 8L15.5498 13.6569C15.1593 14.0474 15.1593 14.6805 15.5498 15.0711C15.9403 15.4616 16.5735 15.4616 16.964 15.0711L23.328 8.70711ZM6.29553 9L22.6209 9L22.6209 7L6.29553 7L6.29553 9Z" fill="#0F1010"/>
</svg>
