<svg width="33" height="61" viewBox="0 0 33 61" fill="none" xmlns="http://www.w3.org/2000/svg">
<path fill-rule="evenodd" clip-rule="evenodd" d="M2 44.5L2 16.5C2 8.49187 8.49188 2 16.5 2C24.5081 2 31 8.49187 31 16.5L31 44.5C31 52.5081 24.5081 59 16.5 59C8.49187 59 2 52.5081 2 44.5ZM33 44.5C33 53.6127 25.6127 61 16.5 61C7.3873 61 6.45818e-07 53.6127 1.44248e-06 44.5L3.89031e-06 16.5C4.68697e-06 7.3873 7.38731 -2.23913e-06 16.5 -1.44248e-06C25.6127 -6.45818e-07 33 7.3873 33 16.5L33 44.5ZM17 47C17.5523 47 18 46.5523 18 46L18 34C18 33.4477 17.5523 33 17 33C16.4477 33 16 33.4477 16 34L16 46C16 46.5523 16.4477 47 17 47Z" fill="white"/>
</svg>
