<svg width="33" height="33" viewBox="0 0 33 33" fill="none" xmlns="http://www.w3.org/2000/svg">
<path d="M24.4166 11.3854C26.6027 11.3854 28.3749 9.61321 28.3749 7.42708C28.3749 5.24096 26.6027 3.46875 24.4166 3.46875C22.2305 3.46875 20.4583 5.24096 20.4583 7.42708C20.4583 9.61321 22.2305 11.3854 24.4166 11.3854Z" stroke="#A3B5C5" stroke-width="2.4" stroke-linecap="round" stroke-linejoin="round"/>
<path d="M8.58333 20.6215C10.7695 20.6215 12.5417 18.8493 12.5417 16.6632C12.5417 14.477 10.7695 12.7048 8.58333 12.7048C6.39721 12.7048 4.625 14.477 4.625 16.6632C4.625 18.8493 6.39721 20.6215 8.58333 20.6215Z" stroke="#A3B5C5" stroke-width="2.4" stroke-linecap="round" stroke-linejoin="round"/>
<path d="M24.4166 29.8576C26.6027 29.8576 28.3749 28.0854 28.3749 25.8993C28.3749 23.7131 26.6027 21.9409 24.4166 21.9409C22.2305 21.9409 20.4583 23.7131 20.4583 25.8993C20.4583 28.0854 22.2305 29.8576 24.4166 29.8576Z" stroke="#A3B5C5" stroke-width="2.4" stroke-linecap="round" stroke-linejoin="round"/>
<path d="M12.0006 18.6555L21.0124 23.9069" stroke="#A3B5C5" stroke-width="2.4" stroke-linecap="round" stroke-linejoin="round"/>
<path d="M20.9992 9.41943L12.0006 14.6708" stroke="#A3B5C5" stroke-width="2.4" stroke-linecap="round" stroke-linejoin="round"/>
</svg>
