<svg width="12" height="23" viewBox="0 0 12 23" fill="none" xmlns="http://www.w3.org/2000/svg">
<path d="M0.383154 12.2162H2.98714V22.1442C2.98714 22.3402 3.15864 22.499 3.3703 22.499H7.78546C7.99711 22.499 8.16861 22.3402 8.16861 22.1442V12.263H11.1621C11.3568 12.263 11.5205 12.1277 11.5427 11.9487L11.9974 8.29369C12.0099 8.19313 11.9755 8.09243 11.9028 8.01699C11.8301 7.94148 11.726 7.89826 11.6168 7.89826H8.16877V5.60714C8.16877 4.91648 8.57031 4.56626 9.36237 4.56626C9.47525 4.56626 11.6168 4.56626 11.6168 4.56626C11.8285 4.56626 12 4.40736 12 4.21142V0.856488C12 0.660475 11.8285 0.501649 11.6168 0.501649H8.50985C8.48793 0.500656 8.43927 0.499023 8.36755 0.499023C7.82845 0.499023 5.9546 0.59703 4.4744 1.85813C2.83434 3.25562 3.06232 4.9289 3.1168 5.21902V7.89819H0.383154C0.1715 7.89819 0 8.05702 0 8.25303V11.8613C0 12.0573 0.1715 12.2162 0.383154 12.2162Z" fill="#0F1010"/>
</svg>
