<svg width="22" height="21" viewBox="0 0 22 21" fill="none" xmlns="http://www.w3.org/2000/svg">
<path d="M2.8248 0.415527H19.1765C20.73 0.415527 22 1.58018 22 3.00433V17.9946C22 19.4183 20.73 20.5822 19.1765 20.5822H2.8248C1.27131 20.5822 0 19.4183 0 17.9946V3.00433C0 1.58018 1.27131 0.415527 2.8248 0.415527ZM16.0267 2.65535C15.4813 2.65535 15.0363 3.06483 15.0363 3.5646V5.73699C15.0363 6.23697 15.4813 6.64551 16.0267 6.64551H18.5129C19.0575 6.64551 19.5034 6.23697 19.5034 5.73699V3.5646C19.5034 3.06483 19.0575 2.65535 18.5129 2.65535H16.0267ZM19.5128 8.94375H17.5771C17.7607 9.49334 17.8602 10.0729 17.8602 10.6755C17.8602 14.0289 14.7973 16.7488 11.0207 16.7488C7.24497 16.7488 4.18205 14.0289 4.18205 10.6755C4.18205 10.0729 4.28252 9.49334 4.46519 8.94375H2.44567V17.4636C2.44567 17.9049 2.83866 18.2638 3.31951 18.2638H18.6394C19.1206 18.2638 19.5128 17.9049 19.5128 17.4636V8.94375ZM11.0208 6.53095C8.58169 6.53095 6.60315 8.28748 6.60315 10.4562C6.60315 12.6228 8.58169 14.3806 11.0208 14.3806C13.4611 14.3806 15.4397 12.6228 15.4397 10.4562C15.4397 8.28741 13.4611 6.53095 11.0208 6.53095Z" fill="#0F1010"/>
</svg>
