<svg width="24" height="23" viewBox="0 0 24 23" fill="none" xmlns="http://www.w3.org/2000/svg">
<path d="M23.3094 13.8345C23.4824 13.1192 23.5745 12.3766 23.5745 11.6145C23.5745 5.90061 18.4496 1.26836 12.1276 1.26836C11.4602 1.26836 10.8063 1.3205 10.17 1.41972C9.14699 0.837163 7.93663 0.499023 6.63832 0.499023C2.97203 0.499023 0 3.18559 0 6.49886C0 7.60649 0.333381 8.64313 0.912436 9.53376C0.760634 10.2059 0.680879 10.9017 0.680879 11.6145C0.680879 17.3284 5.80572 21.9606 12.1276 21.9606C12.8437 21.9606 13.5441 21.9007 14.2236 21.787C15.1581 22.241 16.2267 22.499 17.3618 22.499C21.0281 22.499 24 19.8127 24 16.4992C24 15.5417 23.7507 14.6375 23.3094 13.8345ZM17.9984 16.5589C17.4689 17.2362 16.6865 17.7729 15.6728 18.1538C14.6689 18.531 13.4655 18.7222 12.0957 18.7222C10.4516 18.7222 9.07324 18.4608 7.9974 17.945C7.22833 17.5695 6.59411 17.0609 6.11274 16.4334C5.6265 15.7994 5.37985 15.1704 5.37985 14.5638C5.37985 14.1847 5.5405 13.856 5.85741 13.587C6.17099 13.3204 6.57285 13.1853 7.05203 13.1853C7.44537 13.1853 7.78459 13.2921 8.06044 13.5027C8.32389 13.7045 8.55001 14.0031 8.73167 14.3888C8.9345 14.8087 9.15568 15.1633 9.38926 15.4425C9.61376 15.7111 9.93676 15.9369 10.3492 16.1132C10.7642 16.2908 11.3237 16.3807 12.0118 16.3807C12.958 16.3807 13.7339 16.1981 14.3175 15.8379C14.8875 15.4862 15.1646 15.0639 15.1646 14.547C15.1646 14.1385 15.02 13.8175 14.7225 13.5656C14.411 13.3023 14.0001 13.0973 13.5011 12.9567C12.9808 12.8102 12.2746 12.652 11.401 12.4867C10.2176 12.2577 9.21158 11.9859 8.41038 11.6787C8.40729 11.6776 8.40413 11.6764 8.40105 11.6752C7.58021 11.3596 6.91864 10.922 6.43468 10.3745C5.94308 9.81852 5.694 9.12097 5.694 8.30103C5.694 7.51944 5.9555 6.81493 6.47127 6.20722C6.98314 5.60376 7.73071 5.13479 8.69313 4.813C9.64313 4.49547 10.7732 4.33458 12.0518 4.33458C13.0741 4.33458 13.9729 4.44128 14.723 4.65211C15.4775 4.86448 16.1136 5.15129 16.6134 5.50417C17.1168 5.85969 17.4912 6.24007 17.7265 6.63512C17.964 7.03412 18.0844 7.43122 18.0844 7.81534C18.0844 8.18502 17.9265 8.52096 17.6149 8.81378C17.3015 9.10828 16.9059 9.25781 16.4393 9.25781C16.0153 9.25781 15.6836 9.16431 15.4533 8.97995C15.239 8.80879 15.0169 8.54193 14.7702 8.15796C14.4847 7.6678 14.1393 7.2814 13.743 7.00912C13.3584 6.74468 12.7154 6.6104 11.8319 6.6104C11.0114 6.6104 10.344 6.75927 9.84856 7.0529C9.37109 7.33582 9.13912 7.66024 9.13912 8.04458C9.13912 8.28035 9.21377 8.47732 9.36736 8.64687C9.53003 8.82646 9.75948 8.9842 10.0495 9.11532C10.3504 9.25202 10.6604 9.36062 10.971 9.43814C11.2891 9.51792 11.8229 9.63614 12.5549 9.78896C13.3261 9.93864 14.0444 10.1035 14.6983 10.2799C14.8296 10.3154 14.9595 10.3512 15.0854 10.3876C15.8476 10.6081 16.5064 10.8801 17.0435 11.1959C17.5919 11.5186 18.026 11.9331 18.3341 12.4279C18.6429 12.9244 18.7995 13.5375 18.7995 14.2498C18.7993 15.1023 18.5298 15.879 17.9984 16.5589Z" fill="#0F1010"/>
</svg>
