<svg width="24" height="19" viewBox="0 0 24 19" fill="none" xmlns="http://www.w3.org/2000/svg">
<path d="M0.423911 9.12329L5.954 10.9342L8.09448 16.9737C8.23144 17.3605 8.77056 17.5035 9.1284 17.2468L12.211 15.042C12.5341 14.811 12.9943 14.7995 13.332 15.0146L18.8919 18.5561C19.2747 18.8002 19.817 18.6162 19.913 18.2104L23.9859 1.02174C24.0907 0.578424 23.5942 0.208599 23.1131 0.371858L0.417431 8.0534C-0.142649 8.24291 -0.137769 8.93862 0.423911 9.12329ZM7.74952 9.97019L18.5574 4.12998C18.7516 4.02533 18.9515 4.25576 18.7847 4.3915L9.86504 11.6659C9.55152 11.9219 9.34928 12.2646 9.292 12.6365L8.98816 14.6121C8.94792 14.8758 8.5256 14.902 8.44264 14.6467L7.27408 11.0443C7.14024 10.6334 7.33528 10.1945 7.74952 9.97019Z" fill="#0F1010"/>
</svg>
