<svg width="22" height="17" viewBox="0 0 22 17" fill="none" xmlns="http://www.w3.org/2000/svg">
<path d="M21.5014 2.15324C21.1558 2.29366 20.8004 2.41218 20.4374 2.50839C20.8672 2.06307 21.195 1.53909 21.395 0.965697C21.4399 0.837171 21.3934 0.696489 21.2781 0.612431C21.1629 0.528308 21.0028 0.518231 20.876 0.587077C20.105 1.006 19.2731 1.30707 18.4008 1.48311C17.5222 0.696619 16.3288 0.249023 15.0951 0.249023C12.4909 0.249023 10.3723 2.18978 10.3723 4.57526C10.3723 4.76314 10.3853 4.94998 10.4109 5.13422C7.17944 4.87431 4.17518 3.41931 2.11215 1.10111C2.03863 1.01849 1.92536 0.973953 1.8094 0.982469C1.69337 0.990791 1.58912 1.05073 1.5305 1.14285C1.11208 1.80056 0.89087 2.55279 0.89087 3.31816C0.89087 4.3606 1.29716 5.34967 2.01485 6.12251C1.79663 6.05327 1.58486 5.96674 1.38275 5.86396C1.27424 5.80864 1.14181 5.80948 1.03401 5.86611C0.926141 5.92273 0.858509 6.02688 0.85567 6.14071C0.855174 6.15989 0.855174 6.17907 0.855174 6.1985C0.855174 7.75453 1.76938 9.15543 3.16708 9.91898C3.04701 9.90799 2.927 9.89206 2.80777 9.87119C2.68486 9.84968 2.55846 9.88914 2.47557 9.97502C2.39254 10.0608 2.36508 10.1804 2.40333 10.2897C2.92068 11.7693 4.25267 12.8576 5.86293 13.1894C4.52739 13.9557 3.0001 14.3571 1.3968 14.3571C1.06226 14.3571 0.7258 14.3391 0.396511 14.3034C0.23293 14.2856 0.076518 14.3741 0.0208085 14.5166C-0.034901 14.6591 0.024144 14.8181 0.163311 14.8998C2.223 16.1096 4.6046 16.749 7.0505 16.749C11.8588 16.749 14.8668 14.6719 16.5434 12.9295C18.6341 10.7568 19.8332 7.88091 19.8332 5.03937C19.8332 4.92066 19.8312 4.80078 19.8272 4.68129C20.6521 4.112 21.3622 3.42302 21.9401 2.63113C22.0279 2.51086 22.0184 2.35191 21.9167 2.2412C21.8151 2.13042 21.6459 2.0946 21.5014 2.15324Z" fill="#0F1010"/>
</svg>
