<svg width="26" height="13" viewBox="0 0 26 13" fill="none" xmlns="http://www.w3.org/2000/svg">
<path d="M25.7683 11.529C25.6984 11.4278 25.2661 10.6152 23.1859 8.9451C21.0083 7.19622 21.3008 7.48021 23.9237 4.45623C25.5212 2.61457 26.1599 1.48989 25.96 1.00909C25.7699 0.550786 24.5949 0.671689 24.5949 0.671689L20.6881 0.69137C20.6881 0.69137 20.3989 0.65763 20.1827 0.768692C19.9731 0.878348 19.8382 1.1314 19.8382 1.1314C19.8382 1.1314 19.219 2.55693 18.3935 3.76877C16.653 6.326 15.9558 6.46097 15.6714 6.30211C15.01 5.93237 15.1757 4.81472 15.1757 4.02182C15.1757 1.54331 15.6096 0.510016 14.329 0.242905C13.9033 0.154337 13.5912 0.0952912 12.504 0.0854503C11.1097 0.0727977 9.92822 0.0896679 9.26029 0.372243C8.81501 0.560627 8.47211 0.980975 8.68175 1.00487C8.94014 1.0344 9.52519 1.14124 9.83558 1.50676C10.237 1.97772 10.2224 3.03773 10.2224 3.03773C10.2224 3.03773 10.4531 5.95486 9.68445 6.31757C9.15629 6.5664 8.43311 6.05889 6.88112 3.73784C6.08643 2.5499 5.48514 1.23543 5.48514 1.23543C5.48514 1.23543 5.36976 0.990816 5.16337 0.860072C4.9131 0.701211 4.56207 0.650601 4.56207 0.650601L0.84705 0.670283C0.84705 0.670283 0.289634 0.684342 0.084869 0.893813C-0.0971444 1.08079 0.0702429 1.46599 0.0702429 1.46599C0.0702429 1.46599 2.97921 7.35227 6.2717 10.32C9.2928 13.0403 12.7218 12.8618 12.7218 12.8618H14.2754C14.2754 12.8618 14.7451 12.8168 14.984 12.5933C15.205 12.388 15.1969 12.0028 15.1969 12.0028C15.1969 12.0028 15.166 10.1991 16.1345 9.93341C17.0885 9.67192 18.3138 11.6767 19.6123 12.4485C20.5939 13.0319 21.3398 12.904 21.3398 12.904L24.8127 12.8618C24.8127 12.8618 26.6296 12.7648 25.7683 11.529Z" fill="#0F1010"/>
</svg>
