<svg width="26" height="17" viewBox="0 0 26 17" fill="none" xmlns="http://www.w3.org/2000/svg">
<path d="M24.9866 1.66543C24.0481 0.659394 22.3153 0.249023 19.0061 0.249023H6.99366C3.60872 0.249023 1.84659 0.685865 0.911594 1.75694C0 2.80125 0 4.33995 0 6.46955V10.5286C0 14.6543 1.0816 16.749 6.99366 16.749H19.0062C21.8759 16.749 23.4661 16.3869 24.4949 15.4991C25.5499 14.5886 26 13.1021 26 10.5286V6.46955C26 4.22371 25.9295 2.67593 24.9866 1.66543ZM16.6921 9.05945L11.2373 11.6302C11.1153 11.6877 10.982 11.7162 10.8488 11.7162C10.698 11.7162 10.5475 11.6796 10.4143 11.6068C10.1633 11.4697 10.0101 11.2244 10.0101 10.9599V5.83486C10.0101 5.57076 10.1629 5.32572 10.4133 5.18853C10.6639 5.05133 10.9754 5.04195 11.2354 5.16372L16.6902 7.71791C16.9677 7.84784 17.142 8.1062 17.1424 8.38807C17.1427 8.67018 16.9692 8.92891 16.6921 9.05945Z" fill="#0F1010"/>
</svg>
