<svg width="30" height="16" viewBox="0 0 30 16" fill="none" xmlns="http://www.w3.org/2000/svg">
<circle cx="1.15" cy="8.41367" r="1.15" fill="#EF2020"/>
<path d="M12 7.26367C11.4477 7.26367 11 7.71139 11 8.26367C11 8.81596 11.4477 9.26367 12 9.26367V7.26367ZM29.0647 8.97078C29.4552 8.58025 29.4552 7.94709 29.0647 7.55657L22.7007 1.1926C22.3102 0.80208 21.677 0.80208 21.2865 1.1926C20.896 1.58313 20.896 2.21629 21.2865 2.60682L26.9433 8.26367L21.2865 13.9205C20.896 14.3111 20.896 14.9442 21.2865 15.3347C21.677 15.7253 22.3102 15.7253 22.7007 15.3347L29.0647 8.97078ZM12 9.26367H28.3576V7.26367L12 7.26367V9.26367Z" fill="#EF2020"/>
</svg>
