<svg width="26" height="16" viewBox="0 0 26 16" fill="none" xmlns="http://www.w3.org/2000/svg">
<circle cx="1.15" cy="8.14976" r="1.15" fill="#EF2020"/>
<path d="M8 6.99976C7.44772 6.99976 7 7.44747 7 7.99976C7 8.55204 7.44772 8.99976 8 8.99976V6.99976ZM25.0647 8.70686C25.4552 8.31634 25.4552 7.68317 25.0647 7.29265L18.7007 0.928688C18.3102 0.538164 17.677 0.538164 17.2865 0.928688C16.896 1.31921 16.896 1.95238 17.2865 2.3429L22.9433 7.99976L17.2865 13.6566C16.896 14.0471 16.896 14.6803 17.2865 15.0708C17.677 15.4613 18.3102 15.4613 18.7007 15.0708L25.0647 8.70686ZM8 8.99976H24.3576V6.99976H8V8.99976Z" fill="#EF2020"/>
</svg>
