<svg width="70" height="40" viewBox="0 0 70 40" fill="none" xmlns="http://www.w3.org/2000/svg">
<rect x="23.9557" y="28.7464" width="21.131" height="3.2613" rx="1.63065" stroke="white" stroke-width="0.8"/>
<path d="M24.356 30.5259C24.6718 29.9393 25.1802 25.7472 25.1802 23.4729C25.1802 20.63 25.4509 13.5904 34.5212 13.5904" stroke="white" stroke-width="0.8"/>
<path d="M44.9233 30.5259C44.6075 29.9393 43.8625 25.7472 43.8625 23.4729C43.8625 20.63 43.5917 13.5904 34.5215 13.5904" stroke="white" stroke-width="0.8"/>
<rect x="47.5116" y="28.7464" width="21.131" height="3.2613" rx="1.63065" stroke="white" stroke-width="0.8"/>
<path d="M48.1372 30.5259C48.4531 29.9393 48.7361 25.7472 48.7361 23.4729C48.7361 20.63 49.0068 13.5904 58.0771 13.5904" stroke="white" stroke-width="0.8"/>
<path d="M68.7046 30.5259C68.3887 29.9393 67.4179 25.7472 67.4179 23.4729C67.4179 20.63 67.1471 13.5904 58.0769 13.5904" stroke="white" stroke-width="0.8"/>
<rect x="0.400488" y="28.7464" width="21.131" height="3.2613" rx="1.63065" stroke="white" stroke-width="0.8"/>
<path d="M0.574707 30.5259C0.890586 29.9393 1.62425 25.7472 1.62425 23.4729C1.62425 20.63 1.89501 13.5904 10.9652 13.5904" stroke="white" stroke-width="0.8"/>
<path d="M13.2671 10.883C13.2671 8.04007 13.5378 1.00049 22.6081 1.00049" stroke="white" stroke-width="0.8" stroke-linecap="round"/>
<path d="M36.8228 10.883C36.8228 8.04007 37.0935 1.00049 46.1637 1.00049" stroke="white" stroke-width="0.8" stroke-linecap="round"/>
<path d="M21.1421 30.5259C20.8262 29.9393 20.3066 25.7472 20.3066 23.4729C20.3066 20.63 20.0358 13.5904 10.9656 13.5904" stroke="white" stroke-width="0.8"/>
<path d="M31.9495 10.883C31.9495 8.04007 31.6787 1.00049 22.6085 1.00049" stroke="white" stroke-width="0.8" stroke-linecap="round"/>
<path d="M55.5044 10.883C55.5044 8.04007 55.2336 1.00049 46.1634 1.00049" stroke="white" stroke-width="0.8" stroke-linecap="round"/>
<line x1="0.400488" y1="36.0691" x2="68.3718" y2="36.0691" stroke="white" stroke-width="0.8" stroke-linecap="round"/>
<line x1="12.5843" y1="39.589" x2="56.1878" y2="39.589" stroke="white" stroke-width="0.8" stroke-linecap="round"/>
</svg>
