<svg width="56" height="45" viewBox="0 0 56 45" fill="none" xmlns="http://www.w3.org/2000/svg">
<path d="M28.9643 35.4002V43.0447M19.3214 44.0002H37.6429M10.6429 35.4002H45.3571C50.6827 35.4002 55 31.1221 55 25.8447V10.5558C55 5.27841 50.6827 1.00024 45.3571 1.00024H10.6429C5.31725 1.00024 1 5.27841 1 10.5558V25.8447C1 31.1221 5.31725 35.4002 10.6429 35.4002Z" stroke="white" stroke-linecap="round"/>
<path d="M12.5166 23.8474L43.5166 10.8474" stroke="white" stroke-linecap="round"/>
<path d="M14.989 19.9319C15.1297 19.6943 15.051 19.3876 14.8134 19.247C14.5758 19.1063 14.2691 19.1849 14.1284 19.4226L14.989 19.9319ZM12 24.0002L11.5697 23.7456C11.4925 23.876 11.4786 24.0345 11.532 24.1764C11.5855 24.3183 11.7003 24.4283 11.8444 24.4754L12 24.0002ZM16.7927 26.0955C17.0551 26.1814 17.3375 26.0383 17.4234 25.7759C17.5094 25.5134 17.3663 25.231 17.1038 25.1451L16.7927 26.0955ZM14.1284 19.4226L11.5697 23.7456L12.4303 24.2549L14.989 19.9319L14.1284 19.4226ZM17.1038 25.1451L12.1556 23.5251L11.8444 24.4754L16.7927 26.0955L17.1038 25.1451Z" fill="white"/>
<path d="M42.1027 14.7975C41.9934 15.0511 42.1103 15.3453 42.3638 15.4546C42.6174 15.564 42.9116 15.4471 43.021 15.1935L42.1027 14.7975ZM44.5003 10.5003L44.9594 10.6982C45.0157 10.5677 45.0137 10.4193 44.954 10.2902C44.8943 10.1612 44.7824 10.0637 44.6464 10.0221L44.5003 10.5003ZM40.1465 8.64638C39.8824 8.56565 39.6029 8.71428 39.5222 8.97835C39.4414 9.24243 39.5901 9.52196 39.8541 9.60269L40.1465 8.64638ZM43.021 15.1935L44.9594 10.6982L44.0411 10.3023L42.1027 14.7975L43.021 15.1935ZM39.8541 9.60269L44.3541 10.9784L44.6464 10.0221L40.1465 8.64638L39.8541 9.60269Z" fill="white"/>
</svg>
