<svg width="58" height="66" viewBox="0 0 58 66" fill="none" xmlns="http://www.w3.org/2000/svg">
<path d="M21.001 51.1497L35.5442 42.6133" stroke="white" stroke-linecap="round"/>
<path d="M22.1974 49.1347C22.3051 48.8804 22.1863 48.5869 21.932 48.4792C21.6778 48.3715 21.3843 48.4903 21.2766 48.7446L22.1974 49.1347ZM20.7539 51.26L20.2935 51.065C20.2344 51.2046 20.2418 51.3635 20.3136 51.497C20.3855 51.6305 20.514 51.7242 20.6631 51.7517L20.7539 51.26ZM23.2316 52.2263C23.5031 52.2764 23.7639 52.097 23.8141 51.8254C23.8643 51.5539 23.6848 51.2931 23.4133 51.2429L23.2316 52.2263ZM21.2766 48.7446L20.2935 51.065L21.2143 51.4551L22.1974 49.1347L21.2766 48.7446ZM23.4133 51.2429L20.8448 50.7683L20.6631 51.7517L23.2316 52.2263L23.4133 51.2429Z" fill="white"/>
<path d="M34.8653 44.6045C34.7907 44.8704 34.9458 45.1463 35.2117 45.2209C35.4775 45.2955 35.7535 45.1404 35.8281 44.8745L34.8653 44.6045ZM36.0098 42.3749L36.4912 42.5099C36.5296 42.373 36.5079 42.2262 36.4315 42.1063C36.3551 41.9863 36.2313 41.9046 36.091 41.8815L36.0098 42.3749ZM33.7617 41.4985C33.4892 41.4537 33.232 41.6382 33.1872 41.9107C33.1424 42.1832 33.3269 42.4404 33.5994 42.4852L33.7617 41.4985ZM35.8281 44.8745L36.4912 42.5099L35.5284 42.2399L34.8653 44.6045L35.8281 44.8745ZM33.5994 42.4852L35.9287 42.8683L36.091 41.8815L33.7617 41.4985L33.5994 42.4852Z" fill="white"/>
<line x1="29.5" y1="0.5" x2="29.5" y2="32.5" stroke="white" stroke-linecap="round"/>
<line x1="1.5" y1="16.5" x2="1.5" y2="47.5" stroke="white" stroke-linecap="round"/>
<line x1="56.5" y1="16.5" x2="56.5" y2="47.5" stroke="white" stroke-linecap="round"/>
<path d="M29.3177 32.1946L56.7549 47.9032" stroke="white" stroke-linecap="round"/>
<path d="M1.39733 48.5384L28.8345 64.247" stroke="white" stroke-linecap="round"/>
<path d="M1.39697 48.0232L29.0737 32.2504" stroke="white" stroke-linecap="round"/>
<path d="M28.9774 64.1019L56.9945 47.9131" stroke="white" stroke-linecap="round"/>
</svg>
