<svg width="105" height="65" viewBox="0 0 105 65" fill="none" xmlns="http://www.w3.org/2000/svg">
<path d="M85 63.85L20 63.85C9.58938 63.85 1.15 55.4112 1.15 45.0006L1.15 44.9753L1.15 44.95L1.15 44.9246L1.15 44.8993L1.15 44.8739L1.15 44.8486L1.15 44.8232L1.15 44.7979L1.15 44.7725L1.15 44.7472L1.15 44.7218L1.15 44.6965L1.15 44.6711L1.15 44.6458L1.15 44.6204L1.15 44.595L1.15 44.5697L1.15 44.5443L1.15 44.519L1.15 44.4936L1.15 44.4682L1.15 44.4429L1.15 44.4175L1.15 44.3921L1.15 44.3667L1.15 44.3414L1.15 44.316L1.15 44.2906L1.15 44.2652L1.15 44.2399L1.15 44.2145L1.15 44.1891L1.15 44.1637L1.15 44.1384L1.15 44.113L1.15 44.0876L1.15 44.0622L1.15 44.0368L1.15 44.0115L1.15 43.9861L1.15 43.9607L1.15 43.9353L1.15 43.9099L1.15 43.8845L1.15 43.8591L1.15 43.8338L1.15 43.8084L1.15 43.783L1.15 43.7576L1.15 43.7322L1.15 43.7068L1.15 43.6814L1.15 43.6561L1.15 43.6307L1.15 43.6053L1.15 43.5799L1.15 43.5545L1.15 43.5291L1.15 43.5037L1.15 43.4783L1.15 43.4529L1.15 43.4276L1.15 43.4022L1.15 43.3768L1.15 43.3514L1.15 43.326L1.15 43.3006L1.15 43.2752L1.15 43.2499L1.15 43.2245L1.15 43.1991L1.15 43.1737L1.15 43.1483L1.15 43.1229L1.15 43.0975L1.15 43.0722L1.15 43.0468L1.15 43.0214L1.15 42.996L1.15 42.9706L1.15 42.9453L1.15 42.9199L1.15 42.8945L1.15 42.8691L1.15 42.8437L1.15 42.8184L1.15 42.793L1.15 42.7676L1.15 42.7423L1.15 42.7169L1.15 42.6915L1.15 42.6661L1.15 42.6408L1.15 42.6154L1.15 42.59L1.15 42.5647L1.15 42.5393L1.15 42.514L1.15 42.4886L1.15 42.4632L1.15 42.4379L1.15 42.4125L1.15 42.3872L1.15 42.3618L1.15 42.3365L1.15 42.3111L1.15 42.2858L1.15 42.2604L1.15 42.2351L1.15 42.2097L1.15 42.1844L1.15 42.159L1.15 42.1337L1.15 42.1084L1.15 42.083L1.15 42.0577L1.15 42.0324L1.15 42.007L1.15 41.9817L1.15 41.9564L1.15 41.9311L1.15 41.9057L1.15 41.8804L1.15 41.8551L1.15 41.8298L1.15 41.8045L1.15 41.7792L1.15 41.7538L1.15 41.7285L1.15 41.7032L1.15 41.6779L1.15 41.6526L1.15 41.6273L1.15 41.602L1.15 41.5767L1.15 41.5515L1.15 41.5262L1.15 41.5009L1.15 41.4756L1.15 41.4503L1.15 41.425L1.15 41.3998L1.15 41.3745L1.15 41.3492L1.15 41.324L1.15 41.2987L1.15 41.2734L1.15 41.2482L1.15 41.2229L1.15 41.1977L1.15 41.1724L1.15 41.1472L1.15 41.1219L1.15 41.0967L1.15 41.0715L1.15 41.0462L1.15 41.021L1.15 40.9958L1.15 40.9705L1.15 40.9453L1.15 40.9201L1.15 40.8949L1.15 40.8697L1.15 40.8445L1.15 40.8193L1.15 40.7941L1.15 40.7689L1.15 40.7437L1.15 40.7185L1.15 40.6933L1.15 40.6681L1.15 40.6429L1.15 40.6177L1.15 40.5926L1.15 40.5674L1.15 40.5422L1.15 40.5171L1.15 40.4919L1.15 40.4668L1.15 40.4416L1.15 40.4165L1.15 40.3913L1.15 40.3662L1.15 40.341L1.15 40.3159L1.15 40.2908L1.15 40.2657L1.15 40.2405L1.15 40.2154L1.15 40.1903L1.15 40.1652L1.15 40.1401L1.15 40.115L1.15 40.0899L1.15 40.0648L1.15 40.0398L1.15 40.0147L1.15 39.9896L1.15 39.9645L1.15 39.9395L1.15 39.9144L1.15 39.8893L1.15 39.8643L1.15 39.8392L1.15 39.8142L1.15 39.7892L1.15 39.7641L1.15 39.7391L1.15 39.7141L1.15 39.6891L1.15 39.664L1.15 39.639L1.15 39.614L1.15 39.589L1.15 39.564L1.15 39.539L1.15 39.5141L1.15 39.4891L1.15 39.4641L1.15 39.4391L1.15 39.4142L1.15 39.3892L1.15 39.3643L1.15 39.3393L1.15 39.3144L1.15 39.2894L1.15 39.2645L1.15 39.2396L1.15 39.2146L1.15 39.1897L1.15 39.1648L1.15 39.1399L1.15 39.115L1.15 39.0901L1.15 39.0652L1.15 39.0403L1.15 39.0155L1.15 38.9906L1.15 38.9657L1.15 38.9409L1.15 38.916L1.15 38.8912L1.15 38.8663L1.15 38.8415L1.15 38.8166L1.15 38.7918L1.15 38.767L1.15 38.7422L1.15 38.7174L1.15 38.6926L1.15 38.6678L1.15 38.643L1.15 38.6182L1.15 38.5934L1.15 38.5687L1.15 38.5439L1.15 38.5191L1.15 38.4944L1.15 38.4697L1.15 38.4449L1.15 38.4202L1.15 38.3955L1.15 38.3707L1.15 38.346L1.15 38.3213L1.15 38.2966L1.15 38.2719L1.15 38.2472L1.15 38.2226L1.15 38.1979L1.15 38.1732L1.15 38.1486L1.15 38.1239L1.15 38.0993L1.15 38.0746L1.15 38.05L1.15 38.0254L1.15 38.0007L1.15 37.9761L1.15 37.9515L1.15 37.9269L1.15 37.9023L1.15 37.8778L1.15 37.8532L1.15 37.8286L1.15 37.8041L1.15 37.7795L1.15 37.755L1.15 37.7304L1.15 37.7059L1.15 37.6814L1.15 37.6568L1.15 37.6323L1.15 37.6078L1.15 37.5833L1.15 37.5588L1.15 37.5344L1.15 37.5099L1.15 37.4854L1.15 37.461L1.15 37.4365L1.15 37.4121L1.15 37.3876L1.15 37.3632L1.15 37.3388L1.15 37.3144L1.15 37.29L1.15 37.2656L1.15 37.2412L1.15 37.2168L1.15 37.1925L1.15 37.1681L1.15 37.1437L1.15 37.1194L1.15 37.0951L1.15 37.0707L1.15 37.0464L1.15 37.0221L1.15 36.9978L1.15 36.9735L1.15 36.9492L1.15 36.9249L1.15 36.9007L1.15 36.8764L1.15 36.8521L1.15 36.8279L1.15 36.8036L1.15 36.7794L1.15 36.7552L1.15 36.731L1.15 36.7068L1.15 36.6826L1.15 36.6584L1.15 36.6342L1.15 36.6101L1.15 36.5859L1.15 36.5617L1.15 36.5376L1.15 36.5135L1.15 36.4893L1.15 36.4652L1.15 36.4411L1.15 36.417L1.15 36.3929L1.15 36.3689L1.15 36.3448L1.15 36.3207L1.15 36.2967L1.15 36.2726L1.15 36.2486L1.15 36.2246L1.15 36.2006L1.15 36.1766L1.15 36.1526L1.15 36.1286L1.15 36.1046L1.15 36.0806L1.15 36.0567L1.15 36.0327L1.15 36.0088L1.15 35.9848L1.15 35.9609L1.15 35.937L1.15 35.9131L1.15 35.8892L1.15 35.8653L1.15 35.8415L1.15 35.8176L1.15 35.7938L1.15 35.7699L1.15 35.7461L1.15 35.7223L1.15 35.6984L1.15 35.6746L1.15 35.6509L1.15 35.6271L1.15 35.6033L1.15 35.5795L1.15 35.5558L1.15 35.532L1.15 35.5083L1.15 35.4846L1.15 35.4609L1.15 35.4372L1.15 35.4135L1.15 35.3898L1.15 35.3661L1.15 35.3425L1.15 35.3188L1.15 35.2952L1.15 35.2716L1.15 35.2479L1.15 35.2243L1.15 35.2007L1.15 35.1772L1.15 35.1536L1.15 35.13L1.15 35.1065L1.15 35.0829L1.15 35.0594L1.15 35.0359L1.15 35.0124L1.15 34.9889L1.15 34.9654L1.15 34.9419L1.15 34.9184L1.15 34.895L1.15 34.8715L1.15 34.8481L1.15 34.8247L1.15 34.8013L1.15 34.7779L1.15 34.7545L1.15 34.7311L1.15 34.7078L1.15 34.6844L1.15 34.6611L1.15 34.6377L1.15 34.6144L1.15 34.5911L1.15 34.5678L1.15 34.5445L1.15 34.5212L1.15 34.498L1.15 34.4747L1.15 34.4515L1.15 34.4283L1.15 34.405L1.15 34.3818L1.15 34.3587L1.15 34.3355L1.15 34.3123L1.15 34.2891L1.15 34.266L1.15 34.2429L1.15 34.2198L1.15 34.1966L1.15 34.1735L1.15 34.1505L1.15 34.1274L1.15 34.1043L1.15 34.0813L1.15 34.0582L1.15 34.0352L1.15 34.0122L1.15 33.9892L1.15 33.9662L1.15 33.9433L1.15 33.9203L1.15 33.8973L1.15 33.8744L1.15 33.8515L1.15 33.8286L1.15 33.8057L1.15 33.7828L1.15 33.7599L1.15 33.737L1.15 33.7142L1.15 33.6914L1.15 33.6685L1.15 33.6457L1.15 33.6229L1.15 33.6001L1.15 33.5774L1.15 33.5546L1.15 33.5319L1.15 33.5091L1.15 33.4864L1.15 33.4637L1.15 33.441L1.15 33.4183L1.15 33.3956L1.15 33.373L1.15 33.3504L1.15 33.3277L1.15 33.3051L1.15 33.2825L1.15 33.2599L1.15 33.2373L1.15 33.2148L1.15 33.1922L1.15 33.1697L1.15 33.1472L1.15 33.1247L1.15 33.1022L1.15 33.0797L1.15 33.0572L1.15 33.0348L1.15 33.0123L1.15 32.9899L1.15 32.9675L1.15 32.9451L1.15 32.9227L1.15 32.9003L1.15 32.878L1.15 32.8556L1.15 32.8333L1.15 32.811L1.15 32.7887L1.15 32.7664L1.15 32.7441L1.15 32.7218L1.15 32.6996L1.15 32.6774L1.15 32.6551L1.15 32.6329L1.15 32.6107L1.15 32.5886L1.15 32.5664L1.15 32.5443L1.15 32.5221L1.15 32.5L1.15 32.4779L1.15 32.4558L1.15 32.4336L1.15 32.4114L1.15 32.3893L1.15 32.3671L1.15 32.3449L1.15 32.3227L1.15 32.3004L1.15 32.2782L1.15 32.2559L1.15 32.2336L1.15 32.2114L1.15 32.189L1.15 32.1667L1.15 32.1444L1.15 32.1221L1.15 32.0997L1.15 32.0773L1.15 32.0549L1.15 32.0325L1.15 32.0101L1.15 31.9877L1.15 31.9653L1.15 31.9428L1.15 31.9203L1.15 31.8979L1.15 31.8754L1.15 31.8528L1.15 31.8303L1.15 31.8078L1.15 31.7852L1.15 31.7627L1.15 31.7401L1.15 31.7175L1.15 31.6949L1.15 31.6723L1.15 31.6497L1.15 31.627L1.15 31.6044L1.15 31.5817L1.15 31.559L1.15 31.5363L1.15 31.5136L1.15 31.4909L1.15 31.4682L1.15 31.4454L1.15 31.4226L1.15 31.3999L1.15 31.3771L1.15 31.3543L1.15 31.3315L1.15 31.3087L1.15 31.2858L1.15 31.263L1.15 31.2401L1.15 31.2172L1.15 31.1943L1.15 31.1714L1.15 31.1485L1.15 31.1256L1.15 31.1027L1.15 31.0797L1.15 31.0568L1.15 31.0338L1.15 31.0108L1.15 30.9878L1.15 30.9648L1.15 30.9418L1.15 30.9187L1.15 30.8957L1.15 30.8726L1.15 30.8496L1.15 30.8265L1.15 30.8034L1.15 30.7803L1.15 30.7571L1.15 30.734L1.15 30.7109L1.15 30.6877L1.15 30.6645L1.15 30.6414L1.15 30.6182L1.15 30.595L1.15 30.5717L1.15 30.5485L1.15 30.5253L1.15 30.502L1.15 30.4788L1.15 30.4555L1.15 30.4322L1.15 30.4089L1.15 30.3856L1.15 30.3623L1.15 30.339L1.15 30.3156L1.15 30.2923L1.15 30.2689L1.15 30.2455L1.15 30.2221L1.15 30.1987L1.15 30.1753L1.15 30.1519L1.15 30.1285L1.15 30.105L1.15 30.0816L1.15 30.0581L1.15 30.0346L1.15 30.0111L1.15 29.9876L1.15 29.9641L1.15 29.9406L1.15 29.9171L1.15 29.8935L1.15 29.87L1.15 29.8464L1.15 29.8228L1.15 29.7993L1.15 29.7757L1.15 29.7521L1.15 29.7284L1.15 29.7048L1.15 29.6812L1.15 29.6575L1.15 29.6339L1.15 29.6102L1.15 29.5865L1.15 29.5628L1.15 29.5391L1.15 29.5154L1.15 29.4917L1.15 29.468L1.15 29.4442L1.15 29.4205L1.15 29.3967L1.15 29.3729L1.15 29.3492L1.15 29.3254L1.15 29.3016L1.15 29.2778L1.15 29.2539L1.15 29.2301L1.15 29.2063L1.15 29.1824L1.15 29.1585L1.15 29.1347L1.15 29.1108L1.15 29.0869L1.15 29.063L1.15 29.0391L1.15 29.0152L1.15 28.9912L1.15 28.9673L1.15 28.9434L1.15 28.9194L1.15 28.8954L1.15 28.8714L1.15 28.8475L1.15 28.8235L1.15 28.7995L1.15 28.7754L1.15 28.7514L1.15 28.7274L1.15 28.7033L1.15 28.6793L1.15 28.6552L1.15 28.6312L1.15 28.6071L1.15 28.583L1.15 28.5589L1.15 28.5348L1.15 28.5107L1.15 28.4865L1.15 28.4624L1.15 28.4383L1.15 28.4141L1.15 28.39L1.15 28.3658L1.15 28.3416L1.15 28.3174L1.15 28.2932L1.15 28.269L1.15 28.2448L1.15 28.2206L1.15 28.1964L1.15 28.1721L1.15 28.1479L1.15 28.1236L1.15 28.0994L1.15 28.0751L1.15 28.0508L1.15 28.0265L1.15 28.0022L1.15 27.9779L1.15 27.9536L1.15 27.9293L1.15 27.9049L1.15 27.8806L1.15 27.8563L1.15 27.8319L1.15 27.8075L1.15 27.7832L1.15 27.7588L1.15 27.7344L1.15 27.71L1.15 27.6856L1.15 27.6612L1.15 27.6368L1.15 27.6124L1.15 27.5879L1.15 27.5635L1.15 27.539L1.15 27.5146L1.15 27.4901L1.15 27.4656L1.15 27.4412L1.15 27.4167L1.15 27.3922L1.15 27.3677L1.15 27.3432L1.15 27.3187L1.15 27.2941L1.15 27.2696L1.15 27.2451L1.15 27.2205L1.15 27.196L1.15 27.1714L1.15 27.1468L1.15 27.1223L1.15 27.0977L1.15 27.0731L1.15 27.0485L1.15 27.0239L1.15 26.9993L1.15 26.9746L1.15 26.95L1.15 26.9254L1.15 26.9007L1.15 26.8761L1.15 26.8515L1.15 26.8268L1.15 26.8021L1.15 26.7775L1.15 26.7528L1.15 26.7281L1.15 26.7034L1.15 26.6787L1.15 26.654L1.15 26.6293L1.15 26.6046L1.15 26.5798L1.15 26.5551L1.15 26.5304L1.15 26.5056L1.15 26.4809L1.15 26.4561L1.15 26.4313L1.15 26.4066L1.15 26.3818L1.15 26.357L1.15 26.3322L1.15 26.3074L1.15 26.2826L1.15 26.2578L1.15 26.233L1.15 26.2082L1.15 26.1834L1.15 26.1585L1.15 26.1337L1.15 26.1089L1.15 26.084L1.15 26.0591L1.15 26.0343L1.15 26.0094L1.15 25.9845L1.15 25.9597L1.15 25.9348L1.15 25.9099L1.15 25.885L1.15 25.8601L1.15 25.8352L1.15 25.8103L1.15 25.7854L1.15 25.7604L1.15 25.7355L1.15 25.7106L1.15 25.6856L1.15 25.6607L1.15 25.6358L1.15 25.6108L1.15 25.5858L1.15 25.5609L1.15 25.5359L1.15 25.5109L1.15 25.486L1.15 25.461L1.15 25.436L1.15 25.411L1.15 25.386L1.15 25.361L1.15 25.336L1.15 25.311L1.15 25.2859L1.15 25.2609L1.15 25.2359L1.15 25.2108L1.15 25.1858L1.15 25.1608L1.15 25.1357L1.15 25.1107L1.15 25.0856L1.15 25.0605L1.15 25.0355L1.15 25.0104L1.15 24.9853L1.15 24.9603L1.15 24.9352L1.15 24.9101L1.15 24.885L1.15 24.8599L1.15 24.8348L1.15 24.8097L1.15 24.7846L1.15 24.7595L1.15 24.7343L1.15 24.7092L1.15 24.6841L1.15 24.659L1.15 24.6338L1.15 24.6087L1.15 24.5835L1.15 24.5584L1.15 24.5333L1.15 24.5081L1.15 24.4829L1.15 24.4578L1.15 24.4326L1.15 24.4074L1.15 24.3823L1.15 24.3571L1.15 24.3319L1.15 24.3067L1.15 24.2815L1.15 24.2564L1.15 24.2312L1.15 24.206L1.15 24.1808L1.15 24.1556L1.15 24.1303L1.15 24.1051L1.15 24.0799L1.15 24.0547L1.15 24.0295L1.15 24.0043L1.15 23.979L1.15 23.9538L1.15 23.9286L1.15 23.9033L1.15 23.8781L1.15 23.8528L1.15 23.8276L1.15 23.8023L1.15 23.7771L1.15 23.7518L1.15 23.7266L1.15 23.7013L1.15 23.6761L1.15 23.6508L1.15 23.6255L1.15 23.6002L1.15 23.575L1.15 23.5497L1.15 23.5244L1.15 23.4991L1.15 23.4738L1.15 23.4486L1.15 23.4233L1.15 23.398L1.15 23.3727L1.15 23.3474L1.15 23.3221L1.15 23.2968L1.15 23.2715L1.15 23.2462L1.15 23.2209L1.15 23.1955L1.15 23.1702L1.15 23.1449L1.15 23.1196L1.15 23.0943L1.15 23.069L1.15 23.0436L1.15 23.0183L1.15 22.993L1.15 22.9676L1.15 22.9423L1.15 22.917L1.15 22.8916L1.15 22.8663L1.15 22.841L1.15 22.8156L1.15 22.7903L1.15 22.7649L1.15 22.7396L1.15 22.7142L1.15 22.6889L1.15 22.6636L1.15 22.6382L1.15 22.6128L1.15 22.5875L1.15 22.5621L1.15 22.5368L1.15 22.5114L1.15 22.4861L1.15 22.4607L1.15 22.4353L1.15 22.41L1.15 22.3846L1.15 22.3592L1.15 22.3339L1.15 22.3085L1.15 22.2831L1.15 22.2578L1.15 22.2324L1.15 22.207L1.15 22.1816L1.15 22.1563L1.15 22.1309L1.15 22.1055L1.15 22.0801L1.15 22.0547L1.15 22.0294L1.15 22.004L1.15 21.9786L1.15 21.9532L1.15 21.9278L1.15 21.9025L1.15 21.8771L1.15 21.8517L1.15 21.8263L1.15 21.8009L1.15 21.7755L1.15 21.7502L1.15 21.7248L1.15 21.6994L1.15 21.674L1.15 21.6486L1.15 21.6232L1.15 21.5978L1.15 21.5724L1.15 21.5471L1.15 21.5217L1.15 21.4963L1.15 21.4709L1.15 21.4455L1.15 21.4201L1.15 21.3947L1.15 21.3693L1.15 21.344L1.15 21.3186L1.15 21.2932L1.15 21.2678L1.15 21.2424L1.15 21.217L1.15 21.1916L1.15 21.1662L1.15 21.1409L1.15 21.1155L1.15 21.0901L1.15 21.0647L1.15 21.0393L1.15 21.0139L1.15 20.9886L1.15 20.9632L1.15 20.9378L1.15 20.9124L1.15 20.887L1.15 20.8616L1.15 20.8363L1.15 20.8109L1.15 20.7855L1.15 20.7601L1.15 20.7348L1.15 20.7094L1.15 20.684L1.15 20.6586L1.15 20.6333L1.15 20.6079L1.15 20.5825L1.15 20.5572L1.15 20.5318L1.15 20.5064L1.15 20.4811L1.15 20.4557L1.15 20.4303L1.15 20.405L1.15 20.3796L1.15 20.3542L1.15 20.3289L1.15 20.3035L1.15 20.2782L1.15 20.2528L1.15 20.2275L1.15 20.2021L1.15 20.1768L1.15 20.1514L1.15 20.1261L1.15 20.1007L1.15 20.0754L1.15 20.05L1.15 20.0247L1.15 19.9994C1.15 9.58884 9.58939 1.15001 20 1.15001L85 1.15001C95.4106 1.15001 103.85 9.58887 103.85 19.9994L103.85 32.5L103.85 45.0006C103.85 55.4112 95.4106 63.85 85 63.85Z" stroke="url(#paint0_linear_125:4512)" stroke-opacity="0.5" stroke-width="2.3"/>
<defs>
<linearGradient id="paint0_linear_125:4512" x1="52.5" y1="-7.10426" x2="52.5" y2="62.6319" gradientUnits="userSpaceOnUse">
<stop stop-color="#EEF2F6" stop-opacity="0.58"/>
<stop offset="1" stop-color="#ACB0B5"/>
</linearGradient>
</defs>
</svg>
