<svg width="290" height="130" viewBox="0 0 290 130" fill="none" xmlns="http://www.w3.org/2000/svg">
<path d="M270 128.85L20 128.85C9.5888 128.85 1.14999 120.418 1.14999 110.008L1.14999 109.929L1.14999 109.85L1.14999 109.77L1.14999 109.691L1.14999 109.611L1.14999 109.531L1.14999 109.451L1.14999 109.371L1.14999 109.291L1.14999 109.211L1.14999 109.131L1.14999 109.051L1.14999 108.97L1.14999 108.89L1.14999 108.809L1.14999 108.729L1.14999 108.648L1.14999 108.567L1.14999 108.486L1.14999 108.405L1.14999 108.324L1.14999 108.242L1.14999 108.161L1.14999 108.08L1.14999 107.998L1.14999 107.917L1.14999 107.835L1.14999 107.753L1.14999 107.671L1.14999 107.589L1.14999 107.507L1.14999 107.425L1.14999 107.343L1.14999 107.261L1.14999 107.178L1.14999 107.096L1.14999 107.013L1.14999 106.931L1.14999 106.848L1.14999 106.765L1.14999 106.682L1.14999 106.599L1.14999 106.516L1.14999 106.433L1.14999 106.35L1.14999 106.267L1.14999 106.183L1.14999 106.1L1.14999 106.016L1.14999 105.933L1.14999 105.849L1.14999 105.765L1.14999 105.681L1.14999 105.598L1.14999 105.514L1.14999 105.429L1.14999 105.345L1.14999 105.261L1.14999 105.177L1.14999 105.092L1.14999 105.008L1.14999 104.923L1.14999 104.839L1.14999 104.754L1.14999 104.669L1.14999 104.584L1.14999 104.5L1.14999 104.415L1.14999 104.33L1.14999 104.244L1.14999 104.159L1.14999 104.074L1.14999 103.989L1.14999 103.903L1.14999 103.818L1.14999 103.732L1.14999 103.647L1.14999 103.561L1.14999 103.475L1.14999 103.389L1.14999 103.303L1.14999 103.217L1.14999 103.131L1.14999 103.045L1.14999 102.959L1.14999 102.873L1.14999 102.787L1.14999 102.7L1.14999 102.614L1.14999 102.527L1.14999 102.441L1.14999 102.354L1.14999 102.267L1.14999 102.181L1.14999 102.094L1.14999 102.007L1.14999 101.92L1.14999 101.833L1.14999 101.746L1.14999 101.659L1.14999 101.572L1.14999 101.484L1.14999 101.397L1.14999 101.31L1.14999 101.222L1.14999 101.135L1.14999 101.047L1.14999 100.96L1.14999 100.872L1.14999 100.784L1.14999 100.697L1.14999 100.609L1.14999 100.521L1.14999 100.433L1.14999 100.345L1.14999 100.257L1.14999 100.169L1.14999 100.081L1.14999 99.9925L1.14999 99.9042L1.14999 99.8159L1.14999 99.7275L1.14999 99.6391L1.14999 99.5507L1.14999 99.4621L1.14999 99.3736L1.14999 99.2849L1.14999 99.1963L1.14999 99.1075L1.14999 99.0188L1.14999 98.9299L1.14999 98.8411L1.14999 98.7521L1.14999 98.6632L1.14999 98.5742L1.14999 98.4851L1.14999 98.396L1.14999 98.3068L1.14999 98.2176L1.14999 98.1284L1.14999 98.0391L1.14999 97.9497L1.14999 97.8603L1.14999 97.7709L1.14999 97.6814L1.14999 97.5919L1.14999 97.5024L1.14999 97.4128L1.14999 97.3231L1.14999 97.2334L1.14999 97.1437L1.14999 97.0539L1.14999 96.9641L1.14999 96.8742L1.14999 96.7844L1.14999 96.6944L1.14999 96.6044L1.14999 96.5144L1.14999 96.4244L1.14999 96.3343L1.14999 96.2442L1.14999 96.154L1.14999 96.0638L1.14999 95.9736L1.14999 95.8833L1.14999 95.793L1.14999 95.7026L1.14999 95.6122L1.14999 95.5218L1.14999 95.4314L1.14999 95.3409L1.14999 95.2504L1.14999 95.1598L1.14999 95.0692L1.14999 94.9786L1.14999 94.8879L1.14999 94.7973L1.14999 94.7066L1.14999 94.6158L1.14999 94.525L1.14999 94.4342L1.14999 94.3434L1.14999 94.2525L1.14999 94.1616L1.14999 94.0707L1.14999 93.9797L1.14999 93.8888L1.14999 93.7977L1.14999 93.7067L1.14999 93.6156L1.14999 93.5245L1.14999 93.4334L1.14999 93.3423L1.14999 93.2511L1.14999 93.1599L1.14999 93.0687L1.14999 92.9775L1.14999 92.8862L1.14999 92.7949L1.14999 92.7036L1.14999 92.6122L1.14999 92.5209L1.14999 92.4295L1.14999 92.3381L1.14999 92.2467L1.14999 92.1552L1.14999 92.0637L1.14999 91.9723L1.14999 91.8807L1.14999 91.7892L1.14999 91.6977L1.14999 91.6061L1.14999 91.5145L1.14999 91.4229L1.14999 91.3313L1.14999 91.2397L1.14999 91.148L1.14999 91.0563L1.14999 90.9646L1.14999 90.8729L1.14999 90.7812L1.14999 90.6895L1.14999 90.5977L1.14999 90.506L1.14999 90.4142L1.14999 90.3224L1.14999 90.2306L1.14999 90.1388L1.14999 90.047L1.14999 89.9551L1.14999 89.8633L1.14999 89.7714L1.14999 89.6795L1.14999 89.5877L1.14999 89.4958L1.14999 89.4039L1.14999 89.3119L1.14999 89.22L1.14999 89.1281L1.14999 89.0362L1.14999 88.9442L1.14999 88.8523L1.14999 88.7603L1.14999 88.6683L1.14999 88.5763L1.14999 88.4844L1.14999 88.3924L1.14999 88.3004L1.14999 88.2084L1.14999 88.1164L1.14999 88.0244L1.14999 87.9324L1.14999 87.8404L1.14999 87.7484L1.14999 87.6563L1.14999 87.5643L1.14999 87.4723L1.14999 87.3803L1.14999 87.2882L1.14999 87.1962L1.14999 87.1042L1.14999 87.0122L1.14999 86.9201L1.14999 86.8281L1.14999 86.7361L1.14999 86.6441L1.14999 86.5521L1.14999 86.46L1.14999 86.368L1.14999 86.276L1.14999 86.184L1.14999 86.092L1.14999 86L1.14999 85.908L1.14999 85.816L1.14999 85.724L1.14999 85.6321L1.14999 85.5401L1.14999 85.4481L1.14999 85.3562L1.14999 85.2642L1.14999 85.1723L1.14999 85.0803L1.14999 84.9884L1.14999 84.8965L1.14999 84.8046L1.14999 84.7127L1.14999 84.6208L1.14999 84.5289L1.14999 84.437L1.14999 84.3452L1.14999 84.2533L1.14999 84.1615L1.14999 84.0696L1.14999 83.9778L1.14999 83.886L1.14999 83.7942L1.14999 83.7025L1.14999 83.6107L1.14999 83.519L1.14999 83.4272L1.14999 83.3355L1.14999 83.2438L1.14999 83.1521L1.14999 83.0605L1.14999 82.9688L1.14999 82.8772L1.14999 82.7856L1.14999 82.694L1.14999 82.6024L1.14999 82.5108L1.14999 82.4193L1.14999 82.3278L1.14999 82.2363L1.14999 82.1448L1.14999 82.0533L1.14999 81.9619L1.14999 81.8705L1.14999 81.7791L1.14999 81.6877L1.14999 81.5963L1.14999 81.505L1.14999 81.4137L1.14999 81.3224L1.14999 81.2311L1.14999 81.1399L1.14999 81.0487L1.14999 80.9575L1.14999 80.8663L1.14999 80.7752L1.14999 80.6841L1.14999 80.593L1.14999 80.5019L1.14999 80.4109L1.14999 80.3199L1.14999 80.2289L1.14999 80.138L1.14999 80.047L1.14999 79.9562L1.14999 79.8653L1.14999 79.7745L1.14999 79.6837L1.14999 79.5929L1.14999 79.5021L1.14999 79.4114L1.14999 79.3208L1.14999 79.2301L1.14999 79.1395L1.14999 79.0489L1.14999 78.9584L1.14999 78.8679L1.14999 78.7774L1.14999 78.6869L1.14999 78.5965L1.14999 78.5062L1.14999 78.4158L1.14999 78.3255L1.14999 78.2353L1.14999 78.145L1.14999 78.0548L1.14999 77.9647L1.14999 77.8746L1.14999 77.7845L1.14999 77.6944L1.14999 77.6044L1.14999 77.5145L1.14999 77.4245L1.14999 77.3347L1.14999 77.2448L1.14999 77.155L1.14999 77.0652L1.14999 76.9755L1.14999 76.8858L1.14999 76.7962L1.14999 76.7066L1.14999 76.6171L1.14999 76.5276L1.14999 76.4381L1.14999 76.3487L1.14999 76.2593L1.14999 76.17L1.14999 76.0807L1.14999 75.9914L1.14999 75.9022L1.14999 75.8131L1.14999 75.724L1.14999 75.635L1.14999 75.5459L1.14999 75.457L1.14999 75.3681L1.14999 75.2792L1.14999 75.1904L1.14999 75.1016L1.14999 75.0129L1.14999 74.9243L1.14999 74.8357L1.14999 74.7471L1.14999 74.6586L1.14999 74.5701L1.14999 74.4817L1.14999 74.3934L1.14999 74.3051L1.14999 74.2168L1.14999 74.1286L1.14999 74.0405L1.14999 73.9524L1.14999 73.8644L1.14999 73.7764L1.14999 73.6885L1.14999 73.6006L1.14999 73.5128L1.14999 73.425L1.14999 73.3373L1.14999 73.2497L1.14999 73.1621L1.14999 73.0746L1.14999 72.9871L1.14999 72.8997L1.14999 72.8124L1.14999 72.7251L1.14999 72.6379L1.14999 72.5507L1.14999 72.4636L1.14999 72.3766L1.14999 72.2896L1.14999 72.2026L1.14999 72.1158L1.14999 72.029L1.14999 71.9423L1.14999 71.8556L1.14999 71.769L1.14999 71.6824L1.14999 71.596L1.14999 71.5095L1.14999 71.4232L1.14999 71.3369L1.14999 71.2507L1.14999 71.1645L1.14999 71.0785L1.14999 70.9924L1.14999 70.9065L1.14999 70.8206L1.14999 70.7348L1.14999 70.6491L1.14999 70.5634L1.14999 70.4778L1.14999 70.3922L1.14999 70.3068L1.14999 70.2214L1.14999 70.1361L1.14999 70.0508L1.14999 69.9656L1.14999 69.8805L1.14999 69.7955L1.14999 69.7105L1.14999 69.6256L1.14999 69.5408L1.14999 69.456L1.14999 69.3714L1.14999 69.2868L1.14999 69.2023L1.14999 69.1178L1.14999 69.0334L1.14999 68.9492L1.14999 68.8649L1.14999 68.7808L1.14999 68.6967L1.14999 68.6128L1.14999 68.5288L1.14999 68.445L1.14999 68.3613L1.14999 68.2776L1.14999 68.194L1.14999 68.1105L1.14999 68.0271L1.14999 67.9437L1.14999 67.8604L1.14999 67.7773L1.14999 67.6941L1.14999 67.6111L1.14999 67.5282L1.14999 67.4453L1.14999 67.3626L1.14999 67.2799L1.14999 67.1973L1.14999 67.1147L1.14999 67.0323L1.14999 66.9499L1.14999 66.8677L1.14999 66.7855L1.14999 66.7034L1.14999 66.6214L1.14999 66.5395L1.14999 66.4576L1.14999 66.3759L1.14999 66.2942L1.14999 66.2127L1.14999 66.1312L1.14999 66.0498L1.14999 65.9685L1.14999 65.8873L1.14999 65.8061L1.14999 65.7251L1.14999 65.6442L1.14999 65.5633L1.14999 65.4826L1.14999 65.4019L1.14999 65.3213L1.14999 65.2409L1.14999 65.1605L1.14999 65.0802L1.14999 65L1.14999 64.9198L1.14999 64.8395L1.14999 64.7591L1.14999 64.6786L1.14999 64.5981L1.14999 64.5174L1.14999 64.4367L1.14999 64.3558L1.14999 64.2749L1.14999 64.1938L1.14999 64.1127L1.14999 64.0315L1.14999 63.9502L1.14999 63.8688L1.14999 63.7873L1.14999 63.7058L1.14999 63.6241L1.14999 63.5424L1.14999 63.4605L1.14999 63.3786L1.14999 63.2966L1.14999 63.2145L1.14999 63.1323L1.14999 63.0501L1.14999 62.9677L1.14999 62.8853L1.14999 62.8027L1.14999 62.7201L1.14999 62.6374L1.14999 62.5547L1.14999 62.4718L1.14999 62.3889L1.14999 62.3058L1.14999 62.2227L1.14999 62.1395L1.14999 62.0563L1.14999 61.9729L1.14999 61.8895L1.14999 61.806L1.14999 61.7224L1.14999 61.6387L1.14999 61.555L1.14999 61.4711L1.14999 61.3872L1.14999 61.3033L1.14999 61.2192L1.14999 61.1351L1.14999 61.0508L1.14999 60.9665L1.14999 60.8822L1.14999 60.7977L1.14999 60.7132L1.14999 60.6286L1.14999 60.5439L1.14999 60.4592L1.14999 60.3744L1.14999 60.2895L1.14999 60.2045L1.14999 60.1195L1.14999 60.0344L1.14999 59.9492L1.14999 59.8639L1.14999 59.7786L1.14999 59.6932L1.14999 59.6077L1.14999 59.5222L1.14999 59.4366L1.14999 59.3509L1.14999 59.2652L1.14999 59.1794L1.14999 59.0935L1.14999 59.0075L1.14999 58.9215L1.14999 58.8354L1.14999 58.7493L1.14999 58.6631L1.14999 58.5768L1.14999 58.4904L1.14999 58.404L1.14999 58.3176L1.14999 58.231L1.14999 58.1444L1.14999 58.0577L1.14999 57.971L1.14999 57.8842L1.14999 57.7973L1.14999 57.7104L1.14999 57.6234L1.14999 57.5364L1.14999 57.4493L1.14999 57.3621L1.14999 57.2749L1.14999 57.1876L1.14999 57.1003L1.14999 57.0129L1.14999 56.9254L1.14999 56.8379L1.14999 56.7503L1.14999 56.6626L1.14999 56.575L1.14999 56.4872L1.14999 56.3994L1.14999 56.3115L1.14999 56.2236L1.14999 56.1356L1.14999 56.0476L1.14999 55.9595L1.14999 55.8714L1.14999 55.7832L1.14999 55.6949L1.14999 55.6066L1.14999 55.5183L1.14999 55.4299L1.14999 55.3414L1.14999 55.2529L1.14999 55.1643L1.14999 55.0757L1.14999 54.9871L1.14999 54.8983L1.14999 54.8096L1.14999 54.7208L1.14999 54.6319L1.14999 54.543L1.14999 54.454L1.14999 54.365L1.14999 54.276L1.14999 54.1869L1.14999 54.0977L1.14999 54.0085L1.14999 53.9193L1.14999 53.83L1.14999 53.7407L1.14999 53.6513L1.14999 53.5619L1.14999 53.4724L1.14999 53.3829L1.14999 53.2934L1.14999 53.2038L1.14999 53.1141L1.14999 53.0245L1.14999 52.9347L1.14999 52.845L1.14999 52.7552L1.14999 52.6653L1.14999 52.5754L1.14999 52.4855L1.14999 52.3956L1.14999 52.3056L1.14999 52.2155L1.14999 52.1254L1.14999 52.0353L1.14999 51.9452L1.14999 51.855L1.14999 51.7647L1.14999 51.6745L1.14999 51.5842L1.14999 51.4938L1.14999 51.4035L1.14999 51.313L1.14999 51.2226L1.14999 51.1321L1.14999 51.0416L1.14999 50.9511L1.14999 50.8605L1.14999 50.7699L1.14999 50.6792L1.14999 50.5885L1.14999 50.4978L1.14999 50.4071L1.14999 50.3163L1.14999 50.2255L1.14999 50.1347L1.14999 50.0438L1.14999 49.9529L1.14999 49.862L1.14999 49.7711L1.14999 49.6801L1.14999 49.5891L1.14999 49.4981L1.14999 49.407L1.14999 49.3159L1.14999 49.2248L1.14999 49.1337L1.14999 49.0425L1.14999 48.9513L1.14999 48.8601L1.14999 48.7689L1.14999 48.6776L1.14999 48.5863L1.14999 48.495L1.14999 48.4037L1.14999 48.3123L1.14999 48.2209L1.14999 48.1295L1.14999 48.0381L1.14999 47.9467L1.14999 47.8552L1.14999 47.7637L1.14999 47.6722L1.14999 47.5807L1.14999 47.4892L1.14999 47.3976L1.14999 47.306L1.14999 47.2144L1.14999 47.1228L1.14999 47.0312L1.14999 46.9395L1.14999 46.8478L1.14999 46.7562L1.14999 46.6645L1.14999 46.5727L1.14999 46.481L1.14999 46.3893L1.14999 46.2975L1.14999 46.2057L1.14999 46.114L1.14999 46.0222L1.14999 45.9303L1.14999 45.8385L1.14999 45.7467L1.14999 45.6548L1.14999 45.563L1.14999 45.4711L1.14999 45.3792L1.14999 45.2873L1.14999 45.1954L1.14999 45.1035L1.14999 45.0116L1.14999 44.9197L1.14999 44.8277L1.14999 44.7358L1.14999 44.6438L1.14999 44.5519L1.14999 44.4599L1.14999 44.3679L1.14999 44.276L1.14999 44.184L1.14999 44.092L1.14999 44L1.14999 43.908L1.14999 43.816L1.14999 43.724L1.14999 43.632L1.14999 43.5399L1.14999 43.4479L1.14999 43.3559L1.14999 43.2639L1.14999 43.1719L1.14999 43.0798L1.14999 42.9878L1.14999 42.8958L1.14999 42.8038L1.14999 42.7117L1.14999 42.6197L1.14999 42.5277L1.14999 42.4357L1.14999 42.3437L1.14999 42.2516L1.14999 42.1596L1.14999 42.0676L1.14999 41.9756L1.14999 41.8836L1.14999 41.7916L1.14999 41.6996L1.14999 41.6076L1.14999 41.5156L1.14999 41.4236L1.14999 41.3317L1.14999 41.2397L1.14999 41.1477L1.14999 41.0558L1.14999 40.9638L1.14999 40.8719L1.14999 40.78L1.14999 40.688L1.14999 40.5961L1.14999 40.5042L1.14999 40.4123L1.14999 40.3204L1.14999 40.2286L1.14999 40.1367L1.14999 40.0449L1.14999 39.953L1.14999 39.8612L1.14999 39.7694L1.14999 39.6776L1.14999 39.5858L1.14999 39.494L1.14999 39.4022L1.14999 39.3105L1.14999 39.2188L1.14999 39.127L1.14999 39.0353L1.14999 38.9437L1.14999 38.852L1.14999 38.7603L1.14999 38.6687L1.14999 38.5771L1.14999 38.4855L1.14999 38.3939L1.14999 38.3023L1.14999 38.2108L1.14999 38.1192L1.14999 38.0277L1.14999 37.9362L1.14999 37.8448L1.14999 37.7533L1.14999 37.6619L1.14999 37.5705L1.14999 37.4791L1.14999 37.3878L1.14999 37.2964L1.14999 37.2051L1.14999 37.1138L1.14999 37.0225L1.14999 36.9313L1.14999 36.8401L1.14999 36.7489L1.14999 36.6577L1.14999 36.5666L1.14999 36.4754L1.14999 36.3844L1.14999 36.2933L1.14999 36.2023L1.14999 36.1112L1.14999 36.0203L1.14999 35.9293L1.14999 35.8384L1.14999 35.7475L1.14999 35.6566L1.14999 35.5658L1.14999 35.475L1.14999 35.3842L1.14999 35.2934L1.14999 35.2027L1.14999 35.112L1.14999 35.0214L1.14999 34.9308L1.14999 34.8402L1.14999 34.7496L1.14999 34.6591L1.14999 34.5686L1.14999 34.4782L1.14999 34.3877L1.14999 34.2974L1.14999 34.207L1.14999 34.1167L1.14999 34.0264L1.14999 33.9362L1.14999 33.846L1.14999 33.7558L1.14999 33.6657L1.14999 33.5756L1.14999 33.4856L1.14999 33.3955L1.14999 33.3056L1.14999 33.2156L1.14999 33.1257L1.14999 33.0359L1.14999 32.9461L1.14999 32.8563L1.14999 32.7666L1.14999 32.6769L1.14999 32.5872L1.14999 32.4976L1.14999 32.4081L1.14999 32.3186L1.14999 32.2291L1.14999 32.1396L1.14999 32.0503L1.14999 31.9609L1.14999 31.8716L1.14999 31.7824L1.14999 31.6932L1.14999 31.604L1.14999 31.5149L1.14999 31.4258L1.14999 31.3368L1.14999 31.2478L1.14999 31.1589L1.14999 31.0701L1.14999 30.9812L1.14999 30.8925L1.14999 30.8037L1.14999 30.7151L1.14999 30.6264L1.14999 30.5379L1.14999 30.4493L1.14999 30.3609L1.14999 30.2724L1.14999 30.1841L1.14999 30.0958L1.14999 30.0075L1.14999 29.9193L1.14999 29.8311L1.14999 29.743L1.14999 29.655L1.14999 29.567L1.14999 29.4791L1.14999 29.3912L1.14999 29.3034L1.14999 29.2156L1.14999 29.1279L1.14999 29.0402L1.14999 28.9527L1.14999 28.8651L1.14999 28.7776L1.14999 28.6902L1.14999 28.6029L1.14999 28.5156L1.14999 28.4283L1.14999 28.3411L1.14999 28.254L1.14999 28.167L1.14999 28.08L1.14999 27.993L1.14999 27.9061L1.14999 27.8193L1.14999 27.7326L1.14999 27.6459L1.14999 27.5593L1.14999 27.4727L1.14999 27.3862L1.14999 27.2998L1.14999 27.2134L1.14999 27.1271L1.14999 27.0409L1.14999 26.9547L1.14999 26.8686L1.14999 26.7826L1.14999 26.6966L1.14999 26.6107L1.14999 26.5249L1.14999 26.4392L1.14999 26.3535L1.14999 26.2678L1.14999 26.1823L1.14999 26.0968L1.14999 26.0114L1.14999 25.9261L1.14999 25.8408L1.14999 25.7556L1.14999 25.6705L1.14999 25.5854L1.14999 25.5004L1.14999 25.4155L1.14999 25.3307L1.14999 25.2459L1.14999 25.1612L1.14999 25.0766L1.14999 24.9921L1.14999 24.9076L1.14999 24.8232L1.14999 24.7389L1.14999 24.6547L1.14999 24.5705L1.14999 24.4864L1.14999 24.4024L1.14999 24.3185L1.14999 24.2347L1.14999 24.1509L1.14999 24.0672L1.14999 23.9836L1.14999 23.9001L1.14999 23.8166L1.14999 23.7332L1.14999 23.65L1.14999 23.5667L1.14999 23.4836L1.14999 23.4006L1.14999 23.3176L1.14999 23.2347L1.14999 23.1519L1.14999 23.0692L1.14999 22.9866L1.14999 22.9041L1.14999 22.8216L1.14999 22.7392L1.14999 22.6569L1.14999 22.5747L1.14999 22.4926L1.14999 22.4106L1.14999 22.3286L1.14999 22.2468L1.14999 22.165L1.14999 22.0833L1.14999 22.0018L1.14999 21.9203L1.14999 21.8388L1.14999 21.7575L1.14999 21.6763L1.14999 21.5951L1.14999 21.5141L1.14999 21.4331L1.14999 21.3523L1.14999 21.2715L1.14999 21.1908L1.14999 21.1102L1.14999 21.0297L1.14999 20.9493L1.14999 20.869L1.14999 20.7888L1.14999 20.7086L1.14999 20.6286L1.14999 20.5487L1.14999 20.4688L1.14999 20.3891L1.14999 20.3095L1.14999 20.2299L1.14999 20.1505L1.14999 20.0711L1.14999 19.9918C1.14999 9.58189 9.58884 1.14999 20 1.14999L270 1.15C280.411 1.15 288.85 9.58196 288.85 19.9919L288.85 65L288.85 110.008C288.85 120.418 280.411 128.85 270 128.85Z" stroke="url(#paint0_linear)" stroke-opacity="0.5" stroke-width="2.3"/>
<defs>
<linearGradient id="paint0_linear" x1="145" y1="-14.2085" x2="145" y2="125.264" gradientUnits="userSpaceOnUse">
<stop stop-color="#EEF2F6" stop-opacity="0.58"/>
<stop offset="1" stop-color="#ACB0B5"/>
</linearGradient>
</defs>
</svg>
