<svg width="13" height="8" viewBox="0 0 13 8" fill="none" xmlns="http://www.w3.org/2000/svg">
<path d="M1.36858 0.662138C1.18198 0.458578 0.865697 0.444827 0.662138 0.631423C0.458578 0.818019 0.444827 1.1343 0.631423 1.33786L1.36858 0.662138ZM6.5 7L6.13142 7.33786C6.22613 7.44118 6.35985 7.5 6.5 7.5C6.64015 7.5 6.77387 7.44118 6.86858 7.33786L6.5 7ZM12.3686 1.33786C12.5552 1.1343 12.5414 0.818019 12.3379 0.631423C12.1343 0.444827 11.818 0.458578 11.6314 0.662138L12.3686 1.33786ZM0.631423 1.33786L6.13142 7.33786L6.86858 6.66214L1.36858 0.662138L0.631423 1.33786ZM6.86858 7.33786L12.3686 1.33786L11.6314 0.662138L6.13142 6.66214L6.86858 7.33786Z" fill="#0F1010"/>
</svg>
