<svg width="24" height="24" viewBox="0 0 24 24" fill="none" xmlns="http://www.w3.org/2000/svg">
<g clip-path="url(#clip0_667:2381)">
<path d="M1.17014 24C0.938334 24 0.711722 23.9313 0.518968 23.8026C0.326214 23.6738 0.175978 23.4908 0.0872633 23.2766C-0.00145113 23.0625 -0.0246585 22.8268 0.0205766 22.5994C0.0658117 22.3721 0.177457 22.1633 0.341391 21.9994L21.9976 0.343127C22.2174 0.123329 22.5155 -0.000152588 22.8264 -0.000152588C23.1372 -0.000152588 23.4353 0.123329 23.6551 0.343127C23.8749 0.562925 23.9984 0.861035 23.9984 1.17188C23.9984 1.48272 23.8749 1.78083 23.6551 2.00063L1.99889 23.6569C1.89016 23.7658 1.76097 23.8522 1.61875 23.9111C1.47653 23.97 1.32407 24.0002 1.17014 24Z" fill="white"/>
<path d="M22.8263 24C22.6724 24.0002 22.5199 23.97 22.3777 23.9111C22.2355 23.8522 22.1063 23.7658 21.9976 23.6569L0.341326 2.00063C0.121528 1.78083 -0.00195312 1.48272 -0.00195312 1.17188C-0.00195312 0.861035 0.121528 0.562925 0.341326 0.343127C0.561125 0.123329 0.859235 -0.000152588 1.17008 -0.000152588C1.48092 -0.000152588 1.77903 0.123329 1.99883 0.343127L23.6551 21.9994C23.819 22.1633 23.9307 22.3721 23.9759 22.5994C24.0211 22.8268 23.9979 23.0625 23.9092 23.2766C23.8205 23.4908 23.6703 23.6738 23.4775 23.8026C23.2847 23.9313 23.0581 24 22.8263 24Z" fill="white"/>
</g>
<defs>
<clipPath id="clip0_667:2381">
<rect width="24" height="24" fill="white"/>
</clipPath>
</defs>
</svg>
