<svg width="20" height="22" viewBox="0 0 20 22" fill="none" xmlns="http://www.w3.org/2000/svg">
<path d="M1.89189 16.4894C2.1691 16.4894 2.39757 16.7296 2.4288 17.039L2.43243 17.1116V20.845C2.43243 21.1887 2.19042 21.4673 1.89189 21.4673C1.61468 21.4673 1.38621 21.2271 1.35499 20.9176L1.35135 20.845V17.1116C1.35135 16.768 1.59336 16.4894 1.89189 16.4894ZM12.7027 13.3782C12.9799 13.3782 13.2084 13.6184 13.2396 13.9278L13.2432 14.0004V20.845C13.2432 21.1887 13.0012 21.4673 12.7027 21.4673C12.4255 21.4673 12.197 21.2271 12.1658 20.9176L12.1622 20.845V14.0004C12.1622 13.6567 12.4042 13.3782 12.7027 13.3782ZM7.2973 11.5114C7.57451 11.5114 7.80298 11.7517 7.8342 12.0611L7.83784 12.1337V20.845C7.83784 21.1887 7.59583 21.4673 7.2973 21.4673C7.02009 21.4673 6.79162 21.2271 6.76039 20.9176L6.75676 20.845V12.1337C6.75676 11.79 6.99876 11.5114 7.2973 11.5114ZM18.1081 7.15576C18.3853 7.15576 18.6138 7.39597 18.645 7.70544L18.6486 7.778V20.845C18.6486 21.1887 18.4066 21.4673 18.1081 21.4673C17.8309 21.4673 17.6024 21.2271 17.5712 20.9176L17.5676 20.845V7.778C17.5676 7.43435 17.8096 7.15576 18.1081 7.15576ZM18.1081 0C19.153 0 20 0.975052 20 2.17784C20 3.38063 19.153 4.35568 18.1081 4.35568C17.7843 4.35568 17.4795 4.26203 17.213 4.09697L14.4084 7.45688C14.5277 7.7423 14.5946 8.06228 14.5946 8.40024C14.5946 9.60303 13.7476 10.5781 12.7027 10.5781C11.6927 10.5781 10.8675 9.66695 10.8136 8.51973L10.8108 8.3965L8.87847 7.72979C8.54019 8.32109 7.95834 8.71136 7.2973 8.71136C6.95783 8.71136 6.63924 8.60844 6.3638 8.42822L3.66475 10.7495C3.74171 10.9866 3.78378 11.2434 3.78378 11.5114C3.78378 12.7142 2.93675 13.6893 1.89189 13.6893C0.847029 13.6893 0 12.7142 0 11.5114C0 10.3087 0.847029 9.3336 1.89189 9.3336C2.31107 9.3336 2.69841 9.49053 3.01199 9.75614L5.61082 7.52147C5.47947 7.22495 5.40541 6.88919 5.40541 6.53352C5.40541 5.33073 6.25243 4.35568 7.2973 4.35568C8.30733 4.35568 9.1325 5.26681 9.18639 6.41403L9.18919 6.53728L11.1212 7.2046C11.4594 6.61295 12.0414 6.2224 12.7027 6.2224C13.0601 6.2224 13.3943 6.33648 13.6795 6.53473L16.446 3.2189C16.2995 2.90961 16.2162 2.55492 16.2162 2.17784C16.2162 0.975052 17.0632 0 18.1081 0ZM1.89189 10.5781C1.44409 10.5781 1.08108 10.996 1.08108 11.5114C1.08108 12.0269 1.44409 12.4448 1.89189 12.4448C2.33969 12.4448 2.7027 12.0269 2.7027 11.5114C2.7027 10.996 2.33969 10.5781 1.89189 10.5781ZM12.7027 7.46688C12.2549 7.46688 11.8919 7.88476 11.8919 8.40024C11.8919 8.91572 12.2549 9.3336 12.7027 9.3336C13.1505 9.3336 13.5135 8.91572 13.5135 8.40024C13.5135 7.88476 13.1505 7.46688 12.7027 7.46688ZM7.2973 5.60016C6.8495 5.60016 6.48649 6.01804 6.48649 6.53352C6.48649 7.049 6.8495 7.46688 7.2973 7.46688C7.7451 7.46688 8.10811 7.049 8.10811 6.53352C8.10811 6.01804 7.7451 5.60016 7.2973 5.60016ZM18.1081 1.24448C17.6603 1.24448 17.2973 1.66236 17.2973 2.17784C17.2973 2.69332 17.6603 3.1112 18.1081 3.1112C18.5559 3.1112 18.9189 2.69332 18.9189 2.17784C18.9189 1.66236 18.5559 1.24448 18.1081 1.24448Z" fill="white"/>
</svg>
