<svg width="786" height="177" viewBox="0 0 786 177" fill="none" xmlns="http://www.w3.org/2000/svg">
<path d="M0 175.5H209.137C215.689 175.5 222.219 174.724 228.589 173.188L316.848 151.912C326.17 149.664 334.892 145.412 342.404 139.451L374.07 114.325C376.017 112.78 378.133 111.46 380.376 110.39L407.482 97.4624C408.736 96.8643 410.211 96.9598 411.377 97.7145L423.525 105.575C425.467 106.831 427.731 107.5 430.044 107.5H439.731C442.834 107.5 445.86 108.462 448.393 110.254L463.369 120.847C464.27 121.484 465.517 121.271 466.156 120.371L502.702 68.8539C504.742 65.978 508.81 65.473 511.492 67.7627L544.901 96.2918C548.679 99.518 553.884 100.5 558.578 98.873L583.413 90.2637C586.545 89.1776 590.021 89.902 592.46 92.149L611.342 109.551C612.852 110.942 615.169 110.965 616.705 109.604L627.068 100.426C629.947 97.8757 633.567 96.3149 637.397 95.9719L645.367 95.2582C657.965 94.13 669.639 88.1738 677.946 78.6358L705.88 46.5637C714.526 36.6369 725.202 28.6811 737.186 23.2338L785 1.5" stroke="#D3D8DD" stroke-width="1.7"/>
</svg>
