<svg width="19" height="24" viewBox="0 0 19 24" fill="none" xmlns="http://www.w3.org/2000/svg">
<path d="M0.5 10.6086C0.5 9.22793 1.61929 8.10864 3 8.10864H16C17.3807 8.10864 18.5 9.22793 18.5 10.6086V17.1214C18.5 18.5021 17.3807 19.6214 16 19.6214H9.82526C9.18663 19.6214 8.57221 19.8658 8.10807 20.3044L6.1256 22.1781C5.83221 22.4554 5.34812 22.2886 5.28778 21.8894L5.1378 20.8972C5.02692 20.1637 4.3965 19.6214 3.65465 19.6214H3C1.61929 19.6214 0.5 18.5021 0.5 17.1214V10.6086Z" stroke="white"/>
<path d="M8.64351 10.4781C8.09123 10.4781 7.62774 10.022 7.77635 9.49007C7.85851 9.19601 7.97877 8.9126 8.13715 8.63982C8.48191 8.07303 8.85018 7.62878 9.24196 7.30708C9.6494 6.98539 10.0177 6.64071 10.3468 6.27306C10.6915 5.90541 10.8639 5.56074 10.8639 5.23904C10.8639 4.99394 10.7777 4.7948 10.6053 4.64161C10.433 4.48842 10.1979 4.41182 9.90014 4.41182C9.38489 4.41182 8.92609 4.66357 8.52374 5.16706C8.16084 5.62118 7.5396 5.8488 7.03139 5.5666L4.79249 4.32338C4.34279 4.07367 4.14844 3.51852 4.40824 3.07458C4.93724 2.17062 5.62389 1.46745 6.46819 0.965086C7.54949 0.321695 8.75616 0 10.0882 0C11.671 0 12.9795 0.413608 14.0138 1.24082C15.0481 2.05272 15.5652 3.14802 15.5652 4.52671C15.5652 5.17011 15.4398 5.76754 15.1891 6.31902C14.9384 6.8705 14.6328 7.33006 14.2724 7.69771C13.9119 8.05005 13.5437 8.3794 13.1675 8.68578C12.8071 8.99216 12.5015 9.29853 12.2508 9.60491C11.9006 10.0114 11.4397 10.4781 10.9032 10.4781H8.64351ZM11.6631 16.0388C11.146 16.5443 10.5113 16.7971 9.7591 16.7971C9.00689 16.7971 8.36438 16.5443 7.83157 16.0388C7.31442 15.518 7.05585 14.8899 7.05585 14.1546C7.05585 13.4193 7.31442 12.7989 7.83157 12.2934C8.36438 11.7725 9.00689 11.5121 9.7591 11.5121C10.5113 11.5121 11.146 11.7725 11.6631 12.2934C12.1959 12.7989 12.4624 13.4193 12.4624 14.1546C12.4624 14.8899 12.1959 15.518 11.6631 16.0388Z" fill="white"/>
</svg>
