<svg width="346" height="32" viewBox="0 0 346 32" fill="none" xmlns="http://www.w3.org/2000/svg">
<path d="M0 31H96.2484L138.63 26.9918C143.179 26.5617 147.67 25.6604 152.032 24.3025L165.688 20.0517L179.105 17.5413C179.676 17.4346 180.263 17.4533 180.825 17.5961L185.989 18.907C186.955 19.1519 187.946 19.2759 188.942 19.2759H193.311C194.666 19.2759 196.016 19.4596 197.322 19.822L203.576 21.5574C204.08 21.6974 204.62 21.6339 205.078 21.3804L220.294 12.9662C221.765 12.1527 223.509 11.9936 225.103 12.5276L239.062 17.2038C241.099 17.8864 243.267 18.0908 245.396 17.8012L256.448 16.2981C257.888 16.1023 259.354 16.2581 260.721 16.7522L268.514 19.5696C269.376 19.8815 270.32 19.8874 271.187 19.5863L274.975 18.2701C276.674 17.6796 278.452 17.3472 280.251 17.284L282.638 17.2002C288.993 16.9769 295.243 15.5189 301.041 12.9074L305.592 10.8575C312.5 7.74603 319.766 5.49976 327.224 4.16973L345 1" stroke="#D3D8DD" stroke-width="1.7"/>
</svg>
