<svg width="26" height="25" viewBox="0 0 26 25" fill="none" xmlns="http://www.w3.org/2000/svg">
<path d="M11 5.51946C11 3.02343 9.20914 1 7 1C4.79086 1 3 3.02343 3 5.51946V11.1688C3 13.6648 4.79086 15.6882 7 15.6882C9.20914 15.6882 11 13.6648 11 11.1688V5.51946Z" stroke="white" stroke-linecap="round" stroke-linejoin="round"/>
<path d="M13 17.1479C12.25 18.1108 11.3269 18.8818 10.2922 19.4095C9.25757 19.9371 8.13517 20.2093 7 20.2078C5.86483 20.2093 4.74243 19.9371 3.70776 19.4095C2.67309 18.8818 1.74995 18.1108 1 17.1479" stroke="white" stroke-linecap="round" stroke-linejoin="round"/>
<path d="M7 20.2078V23.5972" stroke="white" stroke-linecap="round" stroke-linejoin="round"/>
<path d="M5 23.5972H9" stroke="white" stroke-linecap="round" stroke-linejoin="round"/>
<path d="M11 9.47395L15.5 6.08442L17 9.47395L18.5 4.38965L20 11.7336L22 6.08442L23 9.47395L25 7.77918" stroke="white" stroke-linecap="round" stroke-linejoin="round"/>
</svg>
