<svg width="20" height="23" viewBox="0 0 20 23" fill="none" xmlns="http://www.w3.org/2000/svg">
<path d="M18 3.42975H8.88L8 0H2C0.9 0 0 1.02892 0 2.2865V17.1487C0 18.4063 0.9 19.4352 2 19.4352H9L10 22.865H18C19.1 22.865 20 21.8361 20 20.5785V5.71625C20 4.45867 19.1 3.42975 18 3.42975ZM5.17 14.3935C2.92 14.3935 1.08 12.3014 1.08 9.71762C1.08 7.13388 2.91 5.04173 5.17 5.04173C6.21 5.04173 7.16 5.46473 7.91 6.26501L7.98 6.3336L6.75 7.68264L6.69 7.62547C6.4 7.3168 5.91 6.95096 5.17 6.95096C3.86 6.95096 2.79 8.1971 2.79 9.71762C2.79 11.2381 3.86 12.4843 5.17 12.4843C6.54 12.4843 7.13 11.4897 7.29 10.8151H5.08V9.0431H9.03L9.04 9.12313C9.08 9.36321 9.09 9.58043 9.09 9.82051C9.09 12.5071 7.48 14.3935 5.17 14.3935ZM11.2 12.4386C11.53 13.1245 11.94 13.7876 12.39 14.3821L11.85 14.988L11.2 12.4386ZM11.97 11.5697H10.98L10.67 10.3807H14.66C14.66 10.3807 14.32 11.8784 13.1 13.5132C12.58 12.8044 12.21 12.107 11.97 11.5697ZM19 20.5785C19 21.2073 18.55 21.7217 18 21.7217H11L13 19.4352L12.19 16.2684L13.11 15.2167L15.79 18.292L16.52 17.4574L13.81 14.3935C14.71 13.216 15.41 11.8212 15.73 10.3807H17V9.19173H13.36V8.00275H12.32V9.19173H10.36L9.18 4.573H18C18.55 4.573 19 5.08746 19 5.71625V20.5785Z" fill="white"/>
</svg>
