<svg width="17" height="15" viewBox="0 0 17 15" fill="none" xmlns="http://www.w3.org/2000/svg">
<circle cx="1.38889" cy="4.38889" r="0.388889" fill="#7E858B"/>
<circle cx="15.6668" cy="10.6111" r="0.388889" transform="rotate(-180 15.6668 10.6111)" fill="#7E858B"/>
<path d="M3.33301 3.88892C3.05687 3.88892 2.83301 4.11277 2.83301 4.38892C2.83301 4.66506 3.05687 4.88892 3.33301 4.88892V3.88892ZM16.4091 4.74247C16.6044 4.54721 16.6044 4.23062 16.4091 4.03536L13.2271 0.853382C13.0319 0.65812 12.7153 0.65812 12.52 0.853382C12.3248 1.04864 12.3248 1.36523 12.52 1.56049L15.3484 4.38892L12.52 7.21734C12.3248 7.41261 12.3248 7.72919 12.52 7.92445C12.7153 8.11971 13.0319 8.11971 13.2271 7.92445L16.4091 4.74247ZM3.33301 4.88892L16.0556 4.88892V3.88892L3.33301 3.88892V4.88892Z" fill="#7E858B"/>
<path d="M13.7227 11.1111C13.9988 11.1111 14.2227 10.8872 14.2227 10.6111C14.2227 10.3349 13.9988 10.1111 13.7227 10.1111L13.7227 11.1111ZM0.646557 10.2575C0.451295 10.4528 0.451295 10.7694 0.646557 10.9646L3.82854 14.1466C4.0238 14.3419 4.34038 14.3419 4.53564 14.1466C4.73091 13.9514 4.73091 13.6348 4.53564 13.4395L1.70722 10.6111L4.53564 7.78266C4.73091 7.58739 4.73091 7.27081 4.53564 7.07555C4.34038 6.88029 4.0238 6.88029 3.82854 7.07555L0.646557 10.2575ZM13.7227 10.1111L1.00011 10.1111L1.00011 11.1111L13.7227 11.1111L13.7227 10.1111Z" fill="#7E858B"/>
</svg>
