<svg width="18" height="28" viewBox="0 0 18 28" fill="none" xmlns="http://www.w3.org/2000/svg">
<path d="M13.9996 6.2C13.9996 3.32812 11.6715 1 8.79961 1C5.92773 1 3.59961 3.32812 3.59961 6.2V12.7C3.59961 15.5719 5.92773 17.9 8.79961 17.9C11.6715 17.9 13.9996 15.5719 13.9996 12.7V6.2Z" stroke="white" stroke-width="1.7" stroke-linecap="round" stroke-linejoin="round"/>
<path d="M16.6 19.5796C15.6251 20.6874 14.425 21.5745 13.0799 22.1815C11.7348 22.7886 10.2757 23.1017 8.8 23.1C7.32428 23.1017 5.86516 22.7886 4.52009 22.1815C3.17501 21.5745 1.97494 20.6874 1 19.5796" stroke="white" stroke-width="1.7" stroke-linecap="round" stroke-linejoin="round"/>
<path d="M8.7998 23.1V27" stroke="white" stroke-width="1.7" stroke-linecap="round" stroke-linejoin="round"/>
<path d="M6.2002 27H11.4002" stroke="white" stroke-width="1.7" stroke-linecap="round" stroke-linejoin="round"/>
</svg>
