<svg width="389" height="71" viewBox="0 0 389 71" fill="none" xmlns="http://www.w3.org/2000/svg">
<path d="M18.5909 28.6V42.4M36.1818 24V47M53.7727 33.2V37.8M229.682 33.2V37.8M1 33.2L1 37.8M71.3636 14.8V56.2M88.9545 1L88.9546 70M106.545 19.4V51.6M124.136 14.8V56.2M141.727 5.6V65.4M159.318 24V47M176.909 28.6V42.4M194.5 30.5V40.5M212.091 24V47M388 33.2V37.8M247.273 1V70M264.864 19.4V51.6M282.455 14.8V56.2M300.045 5.6V65.4M317.636 24V47M335.227 28.6V42.4M352.818 33.2V37.8M370.409 24V47" stroke="#D3D8DD" stroke-width="1.7" stroke-linecap="round"/>
</svg>
